<?xml version="1.0" encoding="UTF-8" standalone="no"?>
<!DOCTYPE svg PUBLIC "-//W3C//DTD SVG 1.1//EN"
 "http://www.w3.org/Graphics/SVG/1.1/DTD/svg11.dtd">
<!-- Generated by graphviz version 2.40.1 (0)
 -->
<!-- Title: DVT_dag Pages: 1 -->
<svg width="400pt" height="362pt"
 viewBox="0.00 0.00 400.28 361.80" xmlns="http://www.w3.org/2000/svg" xmlns:xlink="http://www.w3.org/1999/xlink">
<g id="graph0" class="graph" transform="scale(1 1) rotate(0) translate(4 357.8)">
<title>DVT_dag</title>
<polygon fill="#ffffff" stroke="transparent" points="-4,4 -4,-357.8 396.2757,-357.8 396.2757,4 -4,4"/>
<!-- v0 -->
<g id="node1" class="node">
<title>v0</title>
<ellipse fill="#000000" stroke="#000000" cx="287.6349" cy="-335.2" rx="3.6" ry="3.6"/>
<text text-anchor="middle" x="234.0349" y="-342.6" font-family="Times,serif" font-size="14.00" fill="#000000">Channel.fromPath</text>
</g>
<!-- v1 -->
<g id="node2" class="node">
<title>v1</title>
<ellipse fill="none" stroke="#000000" cx="287.6349" cy="-291.1" rx="3.5" ry="3.5"/>
<text text-anchor="middle" x="271.6349" y="-298.4" font-family="Times,serif" font-size="14.00" fill="#000000">map</text>
</g>
<!-- v0&#45;&gt;v1 -->
<g id="edge1" class="edge">
<title>v0&#45;&gt;v1</title>
<path fill="none" stroke="#000000" d="M287.6349,-331.4401C287.6349,-325.6469 287.6349,-314.244 287.6349,-305.0354"/>
<polygon fill="#000000" stroke="#000000" points="291.135,-304.8504 287.6349,-294.8504 284.135,-304.8505 291.135,-304.8504"/>
</g>
<!-- v2 -->
<g id="node3" class="node">
<title>v2</title>
<ellipse fill="none" stroke="#000000" cx="287.6349" cy="-218.6" rx="104.7816" ry="18"/>
<text text-anchor="middle" x="287.6349" y="-214.9" font-family="Times,serif" font-size="14.00" fill="#000000">hybrid_vc:pre_process:QC</text>
</g>
<!-- v1&#45;&gt;v2 -->
<g id="edge2" class="edge">
<title>v1&#45;&gt;v2</title>
<path fill="none" stroke="#000000" d="M287.6349,-287.2021C287.6349,-279.6027 287.6349,-262.203 287.6349,-246.8295"/>
<polygon fill="#000000" stroke="#000000" points="291.135,-246.6553 287.6349,-236.6553 284.135,-246.6553 291.135,-246.6553"/>
<text text-anchor="middle" x="330.1349" y="-258.4" font-family="Times,serif" font-size="14.00" fill="#000000">barcode_dir_ch</text>
</g>
<!-- v4 -->
<g id="node4" class="node">
<title>v4</title>
<ellipse fill="none" stroke="#000000" cx="169.6349" cy="-145.6" rx="138.3755" ry="18"/>
<text text-anchor="middle" x="169.6349" y="-141.9" font-family="Times,serif" font-size="14.00" fill="#000000">hybrid_vc:pre_process:TRIMMING</text>
</g>
<!-- v2&#45;&gt;v4 -->
<g id="edge3" class="edge">
<title>v2&#45;&gt;v4</title>
<path fill="none" stroke="#000000" d="M259.371,-201.1147C243.6944,-191.4165 224.0013,-179.2334 207.0603,-168.753"/>
<polygon fill="#000000" stroke="#000000" points="208.8336,-165.7344 198.488,-163.4498 205.1508,-171.6874 208.8336,-165.7344"/>
</g>
<!-- v3 -->
<g id="node5" class="node">
<title>v3</title>
<ellipse fill="#000000" stroke="#000000" cx="327.6349" cy="-145.6" rx="1.8" ry="1.8"/>
</g>
<!-- v2&#45;&gt;v3 -->
<g id="edge4" class="edge">
<title>v2&#45;&gt;v3</title>
<path fill="none" stroke="#000000" d="M297.5226,-200.5551C305.0776,-186.7671 315.2452,-168.2112 321.6193,-156.5786"/>
<polygon fill="#000000" stroke="#000000" points="324.8839,-157.9042 326.6199,-147.4525 318.7451,-154.5404 324.8839,-157.9042"/>
</g>
<!-- v5 -->
<g id="node6" class="node">
<title>v5</title>
<ellipse fill="none" stroke="#000000" cx="169.6349" cy="-58.6" rx="169.77" ry="18"/>
<text text-anchor="middle" x="169.6349" y="-54.9" font-family="Times,serif" font-size="14.00" fill="#000000">hybrid_vc:assamble_process:SUB_SAMPLE</text>
</g>
<!-- v4&#45;&gt;v5 -->
<g id="edge5" class="edge">
<title>v4&#45;&gt;v5</title>
<path fill="none" stroke="#000000" d="M169.6349,-127.5735C169.6349,-115.7918 169.6349,-100.1607 169.6349,-86.7581"/>
<polygon fill="#000000" stroke="#000000" points="173.135,-86.6033 169.6349,-76.6034 166.135,-86.6034 173.135,-86.6033"/>
<text text-anchor="middle" x="205.6349" y="-98.4" font-family="Times,serif" font-size="14.00" fill="#000000">trimming_ch</text>
</g>
<!-- v6 -->
<g id="node7" class="node">
<title>v6</title>
<ellipse fill="#000000" stroke="#000000" cx="169.6349" cy="-1.8" rx="1.8" ry="1.8"/>
</g>
<!-- v5&#45;&gt;v6 -->
<g id="edge6" class="edge">
<title>v5&#45;&gt;v6</title>
<path fill="none" stroke="#000000" d="M169.6349,-40.3155C169.6349,-31.6139 169.6349,-21.4551 169.6349,-13.756"/>
<polygon fill="#000000" stroke="#000000" points="173.135,-13.6036 169.6349,-3.6036 166.135,-13.6037 173.135,-13.6036"/>
</g>
</g>
</svg>
