<?xml version="1.0" encoding="UTF-8" standalone="no"?>
<!DOCTYPE svg PUBLIC "-//W3C//DTD SVG 1.1//EN"
 "http://www.w3.org/Graphics/SVG/1.1/DTD/svg11.dtd">
<!-- Generated by graphviz version 2.40.1 (0)
 -->
<!-- Title: DVT_dag Pages: 1 -->
<svg width="511pt" height="828pt"
 viewBox="0.00 0.00 510.94 828.00" xmlns="http://www.w3.org/2000/svg" xmlns:xlink="http://www.w3.org/1999/xlink">
<g id="graph0" class="graph" transform="scale(1 1) rotate(0) translate(4 824)">
<title>DVT_dag</title>
<polygon fill="#ffffff" stroke="transparent" points="-4,4 -4,-824 506.936,-824 506.936,4 -4,4"/>
<!-- v0 -->
<g id="node1" class="node">
<title>v0</title>
<ellipse fill="#000000" stroke="#000000" cx="304.936" cy="-801.4" rx="3.6" ry="3.6"/>
<text text-anchor="middle" x="251.336" y="-808.8" font-family="Times,serif" font-size="14.00" fill="#000000">Channel.fromPath</text>
</g>
<!-- v1 -->
<g id="node2" class="node">
<title>v1</title>
<ellipse fill="none" stroke="#000000" cx="304.936" cy="-757.2" rx="3.5" ry="3.5"/>
<text text-anchor="middle" x="288.936" y="-764.5" font-family="Times,serif" font-size="14.00" fill="#000000">map</text>
</g>
<!-- v0&#45;&gt;v1 -->
<g id="edge1" class="edge">
<title>v0&#45;&gt;v1</title>
<path fill="none" stroke="#000000" d="M304.936,-797.6315C304.936,-791.8252 304.936,-780.3965 304.936,-771.167"/>
<polygon fill="#000000" stroke="#000000" points="308.4361,-770.9589 304.936,-760.9589 301.4361,-770.959 308.4361,-770.9589"/>
</g>
<!-- v2 -->
<g id="node3" class="node">
<title>v2</title>
<ellipse fill="none" stroke="#000000" cx="304.936" cy="-684.6" rx="102.8821" ry="18"/>
<text text-anchor="middle" x="304.936" y="-680.9" font-family="Times,serif" font-size="14.00" fill="#000000">assemble:pre_process:QC</text>
</g>
<!-- v1&#45;&gt;v2 -->
<g id="edge2" class="edge">
<title>v1&#45;&gt;v2</title>
<path fill="none" stroke="#000000" d="M304.936,-753.6984C304.936,-746.334 304.936,-728.6304 304.936,-712.9875"/>
<polygon fill="#000000" stroke="#000000" points="308.4361,-712.6393 304.936,-702.6393 301.4361,-712.6394 308.4361,-712.6393"/>
<text text-anchor="middle" x="347.436" y="-724.4" font-family="Times,serif" font-size="14.00" fill="#000000">barcode_dir_ch</text>
</g>
<!-- v4 -->
<g id="node4" class="node">
<title>v4</title>
<ellipse fill="none" stroke="#000000" cx="343.936" cy="-611.6" rx="136.4758" ry="18"/>
<text text-anchor="middle" x="343.936" y="-607.9" font-family="Times,serif" font-size="14.00" fill="#000000">assemble:pre_process:TRIMMING</text>
</g>
<!-- v2&#45;&gt;v4 -->
<g id="edge3" class="edge">
<title>v2&#45;&gt;v4</title>
<path fill="none" stroke="#000000" d="M314.5764,-666.5551C319.0765,-658.1319 324.5272,-647.9292 329.5045,-638.6128"/>
<polygon fill="#000000" stroke="#000000" points="332.6461,-640.1598 334.2713,-629.6904 326.472,-636.8613 332.6461,-640.1598"/>
</g>
<!-- v3 -->
<g id="node5" class="node">
<title>v3</title>
<ellipse fill="#000000" stroke="#000000" cx="187.936" cy="-611.6" rx="1.8" ry="1.8"/>
</g>
<!-- v2&#45;&gt;v3 -->
<g id="edge4" class="edge">
<title>v2&#45;&gt;v3</title>
<path fill="none" stroke="#000000" d="M261.0743,-668.3116C240.5454,-659.1625 216.7532,-646.213 198.936,-629.6 196.7663,-627.577 194.8684,-625.0321 193.2875,-622.4982"/>
<polygon fill="#000000" stroke="#000000" points="196.3612,-620.8216 188.6904,-613.5134 190.1295,-624.01 196.3612,-620.8216"/>
</g>
<!-- v8 -->
<g id="node6" class="node">
<title>v8</title>
<ellipse fill="none" stroke="#000000" cx="157.936" cy="-539.1" rx="3.5" ry="3.5"/>
<text text-anchor="middle" x="143.436" y="-546.4" font-family="Times,serif" font-size="14.00" fill="#000000">join</text>
</g>
<!-- v4&#45;&gt;v8 -->
<g id="edge5" class="edge">
<title>v4&#45;&gt;v8</title>
<path fill="none" stroke="#000000" d="M298.5877,-594.4219C285.2594,-588.8933 270.8086,-582.4194 257.936,-575.6 247.1518,-569.8869 246.0539,-565.633 234.936,-560.6 213.7847,-551.0249 187.3977,-544.7831 171.6488,-541.6069"/>
<polygon fill="#000000" stroke="#000000" points="172.078,-538.1262 161.6025,-539.7116 170.7803,-545.0048 172.078,-538.1262"/>
<text text-anchor="middle" x="293.936" y="-564.4" font-family="Times,serif" font-size="14.00" fill="#000000">trimming_ch</text>
</g>
<!-- v11 -->
<g id="node11" class="node">
<title>v11</title>
<ellipse fill="none" stroke="#000000" cx="239.936" cy="-408.1" rx="3.5" ry="3.5"/>
<text text-anchor="middle" x="225.436" y="-415.4" font-family="Times,serif" font-size="14.00" fill="#000000">join</text>
</g>
<!-- v4&#45;&gt;v11 -->
<g id="edge13" class="edge">
<title>v4&#45;&gt;v11</title>
<path fill="none" stroke="#000000" d="M343.9777,-593.5392C343.7271,-556.0725 341.3079,-471.4798 324.936,-448.6 307.8441,-424.7141 272.8716,-414.4066 253.5383,-410.3837"/>
<polygon fill="#000000" stroke="#000000" points="254.0903,-406.9268 243.6278,-408.5966 252.848,-413.8157 254.0903,-406.9268"/>
<text text-anchor="middle" x="375.936" y="-506.4" font-family="Times,serif" font-size="14.00" fill="#000000">trimming_ch</text>
</g>
<!-- v15 -->
<g id="node16" class="node">
<title>v15</title>
<ellipse fill="none" stroke="#000000" cx="319.936" cy="-175.1" rx="3.5" ry="3.5"/>
<text text-anchor="middle" x="305.436" y="-182.4" font-family="Times,serif" font-size="14.00" fill="#000000">join</text>
</g>
<!-- v4&#45;&gt;v15 -->
<g id="edge18" class="edge">
<title>v4&#45;&gt;v15</title>
<path fill="none" stroke="#000000" d="M386.9262,-594.501C408.8448,-582.6741 430.936,-564.463 430.936,-539.1 430.936,-539.1 430.936,-539.1 430.936,-233.6 430.936,-190.1422 363.5253,-178.8902 333.7698,-176.0403"/>
<polygon fill="#000000" stroke="#000000" points="333.8672,-172.5376 323.6292,-175.264 333.3328,-179.5172 333.8672,-172.5376"/>
<text text-anchor="middle" x="466.936" y="-375.4" font-family="Times,serif" font-size="14.00" fill="#000000">trimming_ch</text>
</g>
<!-- v9 -->
<g id="node10" class="node">
<title>v9</title>
<ellipse fill="none" stroke="#000000" cx="157.936" cy="-466.6" rx="157.872" ry="18"/>
<text text-anchor="middle" x="157.936" y="-462.9" font-family="Times,serif" font-size="14.00" fill="#000000">assemble:assamble_process:ASSEMBLE</text>
</g>
<!-- v8&#45;&gt;v9 -->
<g id="edge9" class="edge">
<title>v8&#45;&gt;v9</title>
<path fill="none" stroke="#000000" d="M157.936,-535.2021C157.936,-527.6027 157.936,-510.203 157.936,-494.8295"/>
<polygon fill="#000000" stroke="#000000" points="161.4361,-494.6553 157.936,-484.6553 154.4361,-494.6553 161.4361,-494.6553"/>
<text text-anchor="middle" x="211.436" y="-506.4" font-family="Times,serif" font-size="14.00" fill="#000000">reads_with_size_ch</text>
</g>
<!-- v5 -->
<g id="node7" class="node">
<title>v5</title>
<ellipse fill="#000000" stroke="#000000" cx="142.936" cy="-757.2" rx="3.6" ry="3.6"/>
<text text-anchor="middle" x="89.336" y="-764.6" font-family="Times,serif" font-size="14.00" fill="#000000">Channel.fromPath</text>
</g>
<!-- v6 -->
<g id="node8" class="node">
<title>v6</title>
<ellipse fill="none" stroke="#000000" cx="142.936" cy="-684.6" rx="3.5" ry="3.5"/>
<text text-anchor="middle" x="116.936" y="-691.9" font-family="Times,serif" font-size="14.00" fill="#000000">splitCsv</text>
</g>
<!-- v5&#45;&gt;v6 -->
<g id="edge6" class="edge">
<title>v5&#45;&gt;v6</title>
<path fill="none" stroke="#000000" d="M142.936,-753.2967C142.936,-743.1576 142.936,-715.597 142.936,-698.6256"/>
<polygon fill="#000000" stroke="#000000" points="146.4361,-698.1754 142.936,-688.1755 139.4361,-698.1755 146.4361,-698.1754"/>
</g>
<!-- v7 -->
<g id="node9" class="node">
<title>v7</title>
<ellipse fill="none" stroke="#000000" cx="142.936" cy="-611.6" rx="3.5" ry="3.5"/>
<text text-anchor="middle" x="126.936" y="-618.9" font-family="Times,serif" font-size="14.00" fill="#000000">map</text>
</g>
<!-- v6&#45;&gt;v7 -->
<g id="edge7" class="edge">
<title>v6&#45;&gt;v7</title>
<path fill="none" stroke="#000000" d="M142.936,-681.0791C142.936,-671.1785 142.936,-642.6936 142.936,-625.4241"/>
<polygon fill="#000000" stroke="#000000" points="146.4361,-625.2575 142.936,-615.2576 139.4361,-625.2576 146.4361,-625.2575"/>
</g>
<!-- v7&#45;&gt;v8 -->
<g id="edge8" class="edge">
<title>v7&#45;&gt;v8</title>
<path fill="none" stroke="#000000" d="M142.3487,-608.032C141.0947,-599.567 138.6768,-577.6983 143.936,-560.6 145.0883,-556.8535 147.1028,-553.1422 149.2504,-549.8846"/>
<polygon fill="#000000" stroke="#000000" points="152.0688,-551.9607 155.3641,-541.8914 146.5087,-547.708 152.0688,-551.9607"/>
<text text-anchor="middle" x="189.436" y="-564.4" font-family="Times,serif" font-size="14.00" fill="#000000">genome_size_ch</text>
</g>
<!-- v9&#45;&gt;v11 -->
<g id="edge10" class="edge">
<title>v9&#45;&gt;v11</title>
<path fill="none" stroke="#000000" d="M182.9843,-448.7302C198.1384,-437.919 216.737,-424.6505 228.4665,-416.2825"/>
<polygon fill="#000000" stroke="#000000" points="230.6387,-419.0323 236.7467,-410.3753 226.5732,-413.3338 230.6387,-419.0323"/>
</g>
<!-- v10 -->
<g id="node12" class="node">
<title>v10</title>
<ellipse fill="none" stroke="#000000" cx="157.936" cy="-408.1" rx="3.5" ry="3.5"/>
<text text-anchor="middle" x="141.936" y="-415.4" font-family="Times,serif" font-size="14.00" fill="#000000">map</text>
</g>
<!-- v9&#45;&gt;v10 -->
<g id="edge11" class="edge">
<title>v9&#45;&gt;v10</title>
<path fill="none" stroke="#000000" d="M157.936,-448.4109C157.936,-439.9587 157.936,-430.0613 157.936,-422.189"/>
<polygon fill="#000000" stroke="#000000" points="161.4361,-421.9836 157.936,-411.9837 154.4361,-421.9837 161.4361,-421.9836"/>
</g>
<!-- v12 -->
<g id="node13" class="node">
<title>v12</title>
<ellipse fill="none" stroke="#000000" cx="209.936" cy="-350.1" rx="3.5" ry="3.5"/>
<text text-anchor="middle" x="195.436" y="-357.4" font-family="Times,serif" font-size="14.00" fill="#000000">join</text>
</g>
<!-- v11&#45;&gt;v12 -->
<g id="edge14" class="edge">
<title>v11&#45;&gt;v12</title>
<path fill="none" stroke="#000000" d="M238.9263,-404.5375C236.9519,-397.8397 232.2178,-383.0169 225.936,-371.6 223.8542,-367.8165 221.1789,-363.9504 218.614,-360.5589"/>
<polygon fill="#000000" stroke="#000000" points="221.2767,-358.2855 212.2617,-352.7195 215.838,-362.6925 221.2767,-358.2855"/>
</g>
<!-- v10&#45;&gt;v12 -->
<g id="edge12" class="edge">
<title>v10&#45;&gt;v12</title>
<path fill="none" stroke="#000000" d="M156.3608,-404.7209C153.4006,-397.8199 147.9089,-381.8918 154.936,-371.6 159.7686,-364.5222 181.747,-357.5192 196.4151,-353.512"/>
<polygon fill="#000000" stroke="#000000" points="197.6718,-356.8024 206.48,-350.9147 195.9226,-350.0244 197.6718,-356.8024"/>
<text text-anchor="middle" x="188.436" y="-375.4" font-family="Times,serif" font-size="14.00" fill="#000000">coverage_ch</text>
</g>
<!-- v13 -->
<g id="node14" class="node">
<title>v13</title>
<ellipse fill="none" stroke="#000000" cx="209.936" cy="-306.1" rx="3.5" ry="3.5"/>
<text text-anchor="middle" x="193.936" y="-313.4" font-family="Times,serif" font-size="14.00" fill="#000000">map</text>
</g>
<!-- v12&#45;&gt;v13 -->
<g id="edge15" class="edge">
<title>v12&#45;&gt;v13</title>
<path fill="none" stroke="#000000" d="M209.936,-346.3486C209.936,-340.5686 209.936,-329.1915 209.936,-320.0038"/>
<polygon fill="#000000" stroke="#000000" points="213.4361,-319.8419 209.936,-309.8419 206.4361,-319.842 213.4361,-319.8419"/>
</g>
<!-- v14 -->
<g id="node15" class="node">
<title>v14</title>
<ellipse fill="none" stroke="#000000" cx="209.936" cy="-233.6" rx="193.0657" ry="18"/>
<text text-anchor="middle" x="209.936" y="-229.9" font-family="Times,serif" font-size="14.00" fill="#000000">assemble:assamble_process:POLISHING_ROUND</text>
</g>
<!-- v13&#45;&gt;v14 -->
<g id="edge16" class="edge">
<title>v13&#45;&gt;v14</title>
<path fill="none" stroke="#000000" d="M209.936,-302.2021C209.936,-294.6027 209.936,-277.203 209.936,-261.8295"/>
<polygon fill="#000000" stroke="#000000" points="213.4361,-261.6553 209.936,-251.6553 206.4361,-261.6553 213.4361,-261.6553"/>
<text text-anchor="middle" x="242.936" y="-273.4" font-family="Times,serif" font-size="14.00" fill="#000000">polished_ch</text>
</g>
<!-- v14&#45;&gt;v15 -->
<g id="edge17" class="edge">
<title>v14&#45;&gt;v15</title>
<path fill="none" stroke="#000000" d="M243.5373,-215.7302C265.2975,-204.1578 292.352,-189.7697 307.732,-181.5903"/>
<polygon fill="#000000" stroke="#000000" points="309.4395,-184.6464 316.6252,-176.8607 306.1527,-178.4661 309.4395,-184.6464"/>
</g>
<!-- v16 -->
<g id="node17" class="node">
<title>v16</title>
<ellipse fill="none" stroke="#000000" cx="319.936" cy="-131.1" rx="3.5" ry="3.5"/>
<text text-anchor="middle" x="303.936" y="-138.4" font-family="Times,serif" font-size="14.00" fill="#000000">map</text>
</g>
<!-- v15&#45;&gt;v16 -->
<g id="edge19" class="edge">
<title>v15&#45;&gt;v16</title>
<path fill="none" stroke="#000000" d="M319.936,-171.3486C319.936,-165.5686 319.936,-154.1915 319.936,-145.0038"/>
<polygon fill="#000000" stroke="#000000" points="323.4361,-144.8419 319.936,-134.8419 316.4361,-144.842 323.4361,-144.8419"/>
</g>
<!-- v17 -->
<g id="node18" class="node">
<title>v17</title>
<ellipse fill="none" stroke="#000000" cx="319.936" cy="-58.6" rx="150.2735" ry="18"/>
<text text-anchor="middle" x="319.936" y="-54.9" font-family="Times,serif" font-size="14.00" fill="#000000">assemble:assamble_process:MEDAKA</text>
</g>
<!-- v16&#45;&gt;v17 -->
<g id="edge20" class="edge">
<title>v16&#45;&gt;v17</title>
<path fill="none" stroke="#000000" d="M319.936,-127.2021C319.936,-119.6027 319.936,-102.203 319.936,-86.8295"/>
<polygon fill="#000000" stroke="#000000" points="323.4361,-86.6553 319.936,-76.6553 316.4361,-86.6553 323.4361,-86.6553"/>
<text text-anchor="middle" x="351.436" y="-98.4" font-family="Times,serif" font-size="14.00" fill="#000000">medaka_ch</text>
</g>
<!-- v18 -->
<g id="node19" class="node">
<title>v18</title>
<ellipse fill="#000000" stroke="#000000" cx="319.936" cy="-1.8" rx="1.8" ry="1.8"/>
</g>
<!-- v17&#45;&gt;v18 -->
<g id="edge21" class="edge">
<title>v17&#45;&gt;v18</title>
<path fill="none" stroke="#000000" d="M319.936,-40.3155C319.936,-31.6139 319.936,-21.4551 319.936,-13.756"/>
<polygon fill="#000000" stroke="#000000" points="323.4361,-13.6036 319.936,-3.6036 316.4361,-13.6037 323.4361,-13.6036"/>
</g>
</g>
</svg>
