<?xml version="1.0" encoding="UTF-8" standalone="no"?>
<!DOCTYPE svg PUBLIC "-//W3C//DTD SVG 1.1//EN"
 "http://www.w3.org/Graphics/SVG/1.1/DTD/svg11.dtd">
<!-- Generated by graphviz version 2.40.1 (0)
 -->
<!-- Title: DVT_dag Pages: 1 -->
<svg width="1087pt" height="761pt"
 viewBox="0.00 0.00 1087.47 760.80" xmlns="http://www.w3.org/2000/svg" xmlns:xlink="http://www.w3.org/1999/xlink">
<g id="graph0" class="graph" transform="scale(1 1) rotate(0) translate(4 756.8)">
<title>DVT_dag</title>
<polygon fill="#ffffff" stroke="transparent" points="-4,4 -4,-756.8 1083.4683,-756.8 1083.4683,4 -4,4"/>
<!-- v0 -->
<g id="node1" class="node">
<title>v0</title>
<ellipse fill="#000000" stroke="#000000" cx="409.7341" cy="-734.2" rx="3.6" ry="3.6"/>
<text text-anchor="middle" x="356.1341" y="-741.6" font-family="Times,serif" font-size="14.00" fill="#000000">Channel.fromPath</text>
</g>
<!-- v1 -->
<g id="node2" class="node">
<title>v1</title>
<ellipse fill="none" stroke="#000000" cx="409.7341" cy="-690.1" rx="3.5" ry="3.5"/>
<text text-anchor="middle" x="393.7341" y="-697.4" font-family="Times,serif" font-size="14.00" fill="#000000">map</text>
</g>
<!-- v0&#45;&gt;v1 -->
<g id="edge1" class="edge">
<title>v0&#45;&gt;v1</title>
<path fill="none" stroke="#000000" d="M409.7341,-730.4401C409.7341,-724.6469 409.7341,-713.244 409.7341,-704.0354"/>
<polygon fill="#000000" stroke="#000000" points="413.2342,-703.8504 409.7341,-693.8504 406.2342,-703.8505 413.2342,-703.8504"/>
</g>
<!-- v2 -->
<g id="node3" class="node">
<title>v2</title>
<ellipse fill="none" stroke="#000000" cx="409.7341" cy="-617.6" rx="104.7816" ry="18"/>
<text text-anchor="middle" x="409.7341" y="-613.9" font-family="Times,serif" font-size="14.00" fill="#000000">hybrid_vc:pre_process:QC</text>
</g>
<!-- v1&#45;&gt;v2 -->
<g id="edge2" class="edge">
<title>v1&#45;&gt;v2</title>
<path fill="none" stroke="#000000" d="M409.7341,-686.2021C409.7341,-678.6027 409.7341,-661.203 409.7341,-645.8295"/>
<polygon fill="#000000" stroke="#000000" points="413.2342,-645.6553 409.7341,-635.6553 406.2342,-645.6553 413.2342,-645.6553"/>
<text text-anchor="middle" x="452.2341" y="-657.4" font-family="Times,serif" font-size="14.00" fill="#000000">barcode_dir_ch</text>
</g>
<!-- v4 -->
<g id="node4" class="node">
<title>v4</title>
<ellipse fill="none" stroke="#000000" cx="261.7341" cy="-544.6" rx="138.3755" ry="18"/>
<text text-anchor="middle" x="261.7341" y="-540.9" font-family="Times,serif" font-size="14.00" fill="#000000">hybrid_vc:pre_process:TRIMMING</text>
</g>
<!-- v2&#45;&gt;v4 -->
<g id="edge3" class="edge">
<title>v2&#45;&gt;v4</title>
<path fill="none" stroke="#000000" d="M375.0347,-600.4847C354.5509,-590.3812 328.4074,-577.4861 306.396,-566.6292"/>
<polygon fill="#000000" stroke="#000000" points="307.7608,-563.3998 297.2441,-562.1151 304.6642,-569.6776 307.7608,-563.3998"/>
</g>
<!-- v3 -->
<g id="node5" class="node">
<title>v3</title>
<ellipse fill="#000000" stroke="#000000" cx="444.7341" cy="-544.6" rx="1.8" ry="1.8"/>
</g>
<!-- v2&#45;&gt;v3 -->
<g id="edge4" class="edge">
<title>v2&#45;&gt;v3</title>
<path fill="none" stroke="#000000" d="M418.3858,-599.5551C424.9965,-585.7671 433.8931,-567.2112 439.4704,-555.5786"/>
<polygon fill="#000000" stroke="#000000" points="442.6786,-556.9828 443.846,-546.4525 436.3666,-553.9565 442.6786,-556.9828"/>
</g>
<!-- v6 -->
<g id="node6" class="node">
<title>v6</title>
<ellipse fill="none" stroke="#000000" cx="382.7341" cy="-457.6" rx="169.77" ry="18"/>
<text text-anchor="middle" x="382.7341" y="-453.9" font-family="Times,serif" font-size="14.00" fill="#000000">hybrid_vc:assamble_process:SUB_SAMPLE</text>
</g>
<!-- v4&#45;&gt;v6 -->
<g id="edge5" class="edge">
<title>v4&#45;&gt;v6</title>
<path fill="none" stroke="#000000" d="M282.5074,-526.6893C294.5495,-516.5875 310.1682,-503.955 324.7341,-493.6 330.7773,-489.3039 337.3307,-484.9576 343.784,-480.8421"/>
<polygon fill="#000000" stroke="#000000" points="345.8514,-483.677 352.4648,-475.3996 342.133,-477.7462 345.8514,-483.677"/>
<text text-anchor="middle" x="360.7341" y="-497.4" font-family="Times,serif" font-size="14.00" fill="#000000">trimming_ch</text>
</g>
<!-- v10 -->
<g id="node8" class="node">
<title>v10</title>
<ellipse fill="none" stroke="#000000" cx="477.7341" cy="-385.1" rx="3.5" ry="3.5"/>
<text text-anchor="middle" x="463.2341" y="-392.4" font-family="Times,serif" font-size="14.00" fill="#000000">join</text>
</g>
<!-- v6&#45;&gt;v10 -->
<g id="edge7" class="edge">
<title>v6&#45;&gt;v10</title>
<path fill="none" stroke="#000000" d="M406.2173,-439.6786C425.5032,-424.9604 451.9574,-404.7717 466.6876,-393.5302"/>
<polygon fill="#000000" stroke="#000000" points="468.9541,-396.2034 474.7802,-387.3543 464.7073,-390.6387 468.9541,-396.2034"/>
</g>
<!-- v5 -->
<g id="node7" class="node">
<title>v5</title>
<ellipse fill="#000000" stroke="#000000" cx="421.7341" cy="-544.6" rx="3.6" ry="3.6"/>
</g>
<!-- v5&#45;&gt;v6 -->
<g id="edge6" class="edge">
<title>v5&#45;&gt;v6</title>
<path fill="none" stroke="#000000" d="M420.2529,-541.2957C416.145,-532.1319 404.299,-505.7062 395.0051,-484.9737"/>
<polygon fill="#000000" stroke="#000000" points="398.1068,-483.3363 390.8224,-475.643 391.7192,-486.1998 398.1068,-483.3363"/>
<text text-anchor="middle" x="455.7341" y="-497.4" font-family="Times,serif" font-size="14.00" fill="#000000">genome_size_map</text>
</g>
<!-- v11 -->
<g id="node12" class="node">
<title>v11</title>
<ellipse fill="none" stroke="#000000" cx="178.7341" cy="-312.6" rx="178.9686" ry="18"/>
<text text-anchor="middle" x="178.7341" y="-308.9" font-family="Times,serif" font-size="14.00" fill="#000000">hybrid_vc:assamble_process:SUB_SAMPLE_1</text>
</g>
<!-- v10&#45;&gt;v11 -->
<g id="edge11" class="edge">
<title>v10&#45;&gt;v11</title>
<path fill="none" stroke="#000000" d="M474.0315,-384.9097C449.7078,-383.6298 312.5523,-375.9522 272.7341,-363.6 252.0461,-357.1823 230.692,-346.0222 213.5755,-335.775"/>
<polygon fill="#000000" stroke="#000000" points="215.3895,-332.7818 205.0368,-330.5296 211.7254,-338.7462 215.3895,-332.7818"/>
<text text-anchor="middle" x="326.2341" y="-352.4" font-family="Times,serif" font-size="14.00" fill="#000000">reads_with_size_ch</text>
</g>
<!-- v16 -->
<g id="node14" class="node">
<title>v16</title>
<ellipse fill="none" stroke="#000000" cx="393.7341" cy="-219.1" rx="3.5" ry="3.5"/>
<text text-anchor="middle" x="379.2341" y="-226.4" font-family="Times,serif" font-size="14.00" fill="#000000">join</text>
</g>
<!-- v10&#45;&gt;v16 -->
<g id="edge19" class="edge">
<title>v10&#45;&gt;v16</title>
<path fill="none" stroke="#000000" d="M474.4024,-383.8765C462.2197,-379.2049 419.9085,-361.198 402.7341,-330.6 385.1711,-299.3094 388.2718,-255.1048 391.3573,-232.9269"/>
<polygon fill="#000000" stroke="#000000" points="394.8399,-233.3142 392.9774,-222.8844 387.9293,-232.1993 394.8399,-233.3142"/>
<text text-anchor="middle" x="456.2341" y="-308.9" font-family="Times,serif" font-size="14.00" fill="#000000">reads_with_size_ch</text>
</g>
<!-- v13 -->
<g id="node15" class="node">
<title>v13</title>
<ellipse fill="none" stroke="#000000" cx="697.7341" cy="-312.6" rx="178.9686" ry="18"/>
<text text-anchor="middle" x="697.7341" y="-308.9" font-family="Times,serif" font-size="14.00" fill="#000000">hybrid_vc:assamble_process:SUB_SAMPLE_2</text>
</g>
<!-- v10&#45;&gt;v13 -->
<g id="edge14" class="edge">
<title>v10&#45;&gt;v13</title>
<path fill="none" stroke="#000000" d="M481.1898,-383.9612C498.5788,-378.2307 577.9457,-352.0758 635.5666,-333.087"/>
<polygon fill="#000000" stroke="#000000" points="636.9303,-336.3229 645.3323,-329.8688 634.7393,-329.6746 636.9303,-336.3229"/>
<text text-anchor="middle" x="641.2341" y="-352.4" font-family="Times,serif" font-size="14.00" fill="#000000">reads_with_size_ch</text>
</g>
<!-- v15 -->
<g id="node18" class="node">
<title>v15</title>
<ellipse fill="none" stroke="#000000" cx="900.7341" cy="-258.6" rx="178.9686" ry="18"/>
<text text-anchor="middle" x="900.7341" y="-254.9" font-family="Times,serif" font-size="14.00" fill="#000000">hybrid_vc:assamble_process:SUB_SAMPLE_3</text>
</g>
<!-- v10&#45;&gt;v15 -->
<g id="edge17" class="edge">
<title>v10&#45;&gt;v15</title>
<path fill="none" stroke="#000000" d="M481.4539,-384.8693C520.5237,-382.413 854.8248,-360.574 885.7341,-330.6 897.2406,-319.4417 901.0693,-301.9141 901.9832,-286.9467"/>
<polygon fill="#000000" stroke="#000000" points="905.4891,-286.7001 902.2015,-276.6283 898.4906,-286.552 905.4891,-286.7001"/>
<text text-anchor="middle" x="877.2341" y="-352.4" font-family="Times,serif" font-size="14.00" fill="#000000">reads_with_size_ch</text>
</g>
<!-- v7 -->
<g id="node9" class="node">
<title>v7</title>
<ellipse fill="#000000" stroke="#000000" cx="573.7341" cy="-617.6" rx="3.6" ry="3.6"/>
<text text-anchor="middle" x="620.1341" y="-625" font-family="Times,serif" font-size="14.00" fill="#000000">Channel.fromPath</text>
</g>
<!-- v8 -->
<g id="node10" class="node">
<title>v8</title>
<ellipse fill="none" stroke="#000000" cx="573.7341" cy="-544.6" rx="3.5" ry="3.5"/>
<text text-anchor="middle" x="547.7341" y="-551.9" font-family="Times,serif" font-size="14.00" fill="#000000">splitCsv</text>
</g>
<!-- v7&#45;&gt;v8 -->
<g id="edge8" class="edge">
<title>v7&#45;&gt;v8</title>
<path fill="none" stroke="#000000" d="M573.7341,-613.6752C573.7341,-603.3803 573.7341,-575.2227 573.7341,-558.204"/>
<polygon fill="#000000" stroke="#000000" points="577.2342,-558.1951 573.7341,-548.1952 570.2342,-558.1952 577.2342,-558.1951"/>
</g>
<!-- v9 -->
<g id="node11" class="node">
<title>v9</title>
<ellipse fill="none" stroke="#000000" cx="573.7341" cy="-457.6" rx="3.5" ry="3.5"/>
<text text-anchor="middle" x="582.7341" y="-464.9" font-family="Times,serif" font-size="14.00" fill="#000000">map</text>
</g>
<!-- v8&#45;&gt;v9 -->
<g id="edge9" class="edge">
<title>v8&#45;&gt;v9</title>
<path fill="none" stroke="#000000" d="M573.7341,-540.8617C573.7341,-529.0107 573.7341,-491.8578 573.7341,-471.4184"/>
<polygon fill="#000000" stroke="#000000" points="577.2342,-471.2275 573.7341,-461.2275 570.2342,-471.2276 577.2342,-471.2275"/>
</g>
<!-- v9&#45;&gt;v10 -->
<g id="edge10" class="edge">
<title>v9&#45;&gt;v10</title>
<path fill="none" stroke="#000000" d="M572.0465,-454.2532C569.9885,-450.4002 566.2235,-444.0337 561.7341,-439.6 539.6155,-417.7554 507.4094,-399.8355 490.0021,-391.0166"/>
<polygon fill="#000000" stroke="#000000" points="491.4751,-387.8408 480.9548,-386.5858 488.3962,-394.1274 491.4751,-387.8408"/>
<text text-anchor="middle" x="583.2341" y="-410.4" font-family="Times,serif" font-size="14.00" fill="#000000">genome_size_ch</text>
</g>
<!-- v12 -->
<g id="node13" class="node">
<title>v12</title>
<ellipse fill="#000000" stroke="#000000" cx="178.7341" cy="-219.1" rx="1.8" ry="1.8"/>
</g>
<!-- v11&#45;&gt;v12 -->
<g id="edge12" class="edge">
<title>v11&#45;&gt;v12</title>
<path fill="none" stroke="#000000" d="M178.7341,-294.5723C178.7341,-275.999 178.7341,-247.5507 178.7341,-231.4076"/>
<polygon fill="#000000" stroke="#000000" points="182.2342,-231.2285 178.7341,-221.2286 175.2342,-231.2286 182.2342,-231.2285"/>
</g>
<!-- v11&#45;&gt;v16 -->
<g id="edge13" class="edge">
<title>v11&#45;&gt;v16</title>
<path fill="none" stroke="#000000" d="M219.174,-295.0134C268.7903,-273.4361 350.1398,-238.0585 381.1713,-224.5634"/>
<polygon fill="#000000" stroke="#000000" points="382.6551,-227.7348 390.4297,-220.5371 379.8635,-221.3155 382.6551,-227.7348"/>
</g>
<!-- v17 -->
<g id="node16" class="node">
<title>v17</title>
<ellipse fill="none" stroke="#000000" cx="700.7341" cy="-175.1" rx="3.5" ry="3.5"/>
<text text-anchor="middle" x="686.2341" y="-182.4" font-family="Times,serif" font-size="14.00" fill="#000000">join</text>
</g>
<!-- v16&#45;&gt;v17 -->
<g id="edge20" class="edge">
<title>v16&#45;&gt;v17</title>
<path fill="none" stroke="#000000" d="M397.6158,-218.5437C428.2674,-214.1506 631.538,-185.0174 686.8567,-177.0889"/>
<polygon fill="#000000" stroke="#000000" points="687.5369,-180.5273 696.9392,-175.6439 686.5438,-173.5981 687.5369,-180.5273"/>
</g>
<!-- v13&#45;&gt;v17 -->
<g id="edge15" class="edge">
<title>v13&#45;&gt;v17</title>
<path fill="none" stroke="#000000" d="M698.1325,-294.3411C698.7406,-266.4717 699.8869,-213.9316 700.4318,-188.959"/>
<polygon fill="#000000" stroke="#000000" points="703.9368,-188.7635 700.6558,-178.6895 696.9384,-188.6108 703.9368,-188.7635"/>
</g>
<!-- v14 -->
<g id="node17" class="node">
<title>v14</title>
<ellipse fill="#000000" stroke="#000000" cx="670.7341" cy="-219.1" rx="1.8" ry="1.8"/>
</g>
<!-- v13&#45;&gt;v14 -->
<g id="edge16" class="edge">
<title>v13&#45;&gt;v14</title>
<path fill="none" stroke="#000000" d="M692.049,-294.3125C690.3131,-288.6443 688.4186,-282.3716 686.7341,-276.6 682.0937,-260.7005 677.0104,-242.2389 673.8463,-230.6133"/>
<polygon fill="#000000" stroke="#000000" points="677.2066,-229.6314 671.2155,-220.8932 670.4497,-231.4603 677.2066,-229.6314"/>
</g>
<!-- v18 -->
<g id="node19" class="node">
<title>v18</title>
<ellipse fill="none" stroke="#000000" cx="758.7341" cy="-131.1" rx="3.5" ry="3.5"/>
<text text-anchor="middle" x="744.2341" y="-138.4" font-family="Times,serif" font-size="14.00" fill="#000000">join</text>
</g>
<!-- v17&#45;&gt;v18 -->
<g id="edge21" class="edge">
<title>v17&#45;&gt;v18</title>
<path fill="none" stroke="#000000" d="M703.5316,-172.9778C711.3978,-167.0103 734.0297,-149.8413 747.7506,-139.4323"/>
<polygon fill="#000000" stroke="#000000" points="749.9766,-142.1369 755.8281,-133.3046 745.7458,-136.56 749.9766,-142.1369"/>
</g>
<!-- v15&#45;&gt;v18 -->
<g id="edge18" class="edge">
<title>v15&#45;&gt;v18</title>
<path fill="none" stroke="#000000" d="M880.6902,-240.6028C850.0505,-213.0918 792.6517,-161.5541 769.1607,-140.4619"/>
<polygon fill="#000000" stroke="#000000" points="771.3198,-137.6967 761.5407,-133.62 766.6431,-142.9052 771.3198,-137.6967"/>
</g>
<!-- v19 -->
<g id="node20" class="node">
<title>v19</title>
<ellipse fill="none" stroke="#000000" cx="758.7341" cy="-58.6" rx="194.9654" ry="18"/>
<text text-anchor="middle" x="758.7341" y="-54.9" font-family="Times,serif" font-size="14.00" fill="#000000">hybrid_vc:assamble_process:MERGE_ASSEMBLE</text>
</g>
<!-- v18&#45;&gt;v19 -->
<g id="edge22" class="edge">
<title>v18&#45;&gt;v19</title>
<path fill="none" stroke="#000000" d="M758.7341,-127.2021C758.7341,-119.6027 758.7341,-102.203 758.7341,-86.8295"/>
<polygon fill="#000000" stroke="#000000" points="762.2342,-86.6553 758.7341,-76.6553 755.2342,-86.6553 762.2342,-86.6553"/>
<text text-anchor="middle" x="806.2341" y="-98.4" font-family="Times,serif" font-size="14.00" fill="#000000">trycyler_input_ch</text>
</g>
<!-- v20 -->
<g id="node21" class="node">
<title>v20</title>
<ellipse fill="#000000" stroke="#000000" cx="758.7341" cy="-1.8" rx="1.8" ry="1.8"/>
</g>
<!-- v19&#45;&gt;v20 -->
<g id="edge23" class="edge">
<title>v19&#45;&gt;v20</title>
<path fill="none" stroke="#000000" d="M758.7341,-40.3155C758.7341,-31.6139 758.7341,-21.4551 758.7341,-13.756"/>
<polygon fill="#000000" stroke="#000000" points="762.2342,-13.6036 758.7341,-3.6036 755.2342,-13.6037 762.2342,-13.6036"/>
</g>
</g>
</svg>
