<?xml version="1.0" encoding="UTF-8" standalone="no"?>
<!DOCTYPE svg PUBLIC "-//W3C//DTD SVG 1.1//EN"
 "http://www.w3.org/Graphics/SVG/1.1/DTD/svg11.dtd">
<!-- Generated by graphviz version 2.40.1 (0)
 -->
<!-- Title: DVT_dag Pages: 1 -->
<svg width="621pt" height="507pt"
 viewBox="0.00 0.00 621.37 506.80" xmlns="http://www.w3.org/2000/svg" xmlns:xlink="http://www.w3.org/1999/xlink">
<g id="graph0" class="graph" transform="scale(1 1) rotate(0) translate(4 502.8)">
<title>DVT_dag</title>
<polygon fill="#ffffff" stroke="transparent" points="-4,4 -4,-502.8 617.3749,-502.8 617.3749,4 -4,4"/>
<!-- v0 -->
<g id="node1" class="node">
<title>v0</title>
<ellipse fill="#000000" stroke="#000000" cx="104.6407" cy="-480.2" rx="3.6" ry="3.6"/>
<text text-anchor="middle" x="51.0407" y="-487.6" font-family="Times,serif" font-size="14.00" fill="#000000">Channel.fromPath</text>
</g>
<!-- v1 -->
<g id="node2" class="node">
<title>v1</title>
<ellipse fill="none" stroke="#000000" cx="104.6407" cy="-436.1" rx="3.5" ry="3.5"/>
<text text-anchor="middle" x="88.6407" y="-443.4" font-family="Times,serif" font-size="14.00" fill="#000000">map</text>
</g>
<!-- v0&#45;&gt;v1 -->
<g id="edge1" class="edge">
<title>v0&#45;&gt;v1</title>
<path fill="none" stroke="#000000" d="M104.6407,-476.4401C104.6407,-470.6469 104.6407,-459.244 104.6407,-450.0354"/>
<polygon fill="#000000" stroke="#000000" points="108.1408,-449.8504 104.6407,-439.8504 101.1408,-449.8505 108.1408,-449.8504"/>
</g>
<!-- v2 -->
<g id="node3" class="node">
<title>v2</title>
<ellipse fill="none" stroke="#000000" cx="104.6407" cy="-363.6" rx="104.7816" ry="18"/>
<text text-anchor="middle" x="104.6407" y="-359.9" font-family="Times,serif" font-size="14.00" fill="#000000">hybrid_vc:pre_process:QC</text>
</g>
<!-- v1&#45;&gt;v2 -->
<g id="edge2" class="edge">
<title>v1&#45;&gt;v2</title>
<path fill="none" stroke="#000000" d="M104.6407,-432.2021C104.6407,-424.6027 104.6407,-407.203 104.6407,-391.8295"/>
<polygon fill="#000000" stroke="#000000" points="108.1408,-391.6553 104.6407,-381.6553 101.1408,-391.6553 108.1408,-391.6553"/>
<text text-anchor="middle" x="147.1407" y="-403.4" font-family="Times,serif" font-size="14.00" fill="#000000">barcode_dir_ch</text>
</g>
<!-- v4 -->
<g id="node4" class="node">
<title>v4</title>
<ellipse fill="none" stroke="#000000" cx="216.6407" cy="-290.6" rx="138.3755" ry="18"/>
<text text-anchor="middle" x="216.6407" y="-286.9" font-family="Times,serif" font-size="14.00" fill="#000000">hybrid_vc:pre_process:TRIMMING</text>
</g>
<!-- v2&#45;&gt;v4 -->
<g id="edge3" class="edge">
<title>v2&#45;&gt;v4</title>
<path fill="none" stroke="#000000" d="M131.4675,-346.1147C146.2104,-336.5054 164.6961,-324.4568 180.6751,-314.0419"/>
<polygon fill="#000000" stroke="#000000" points="182.7883,-316.8424 189.2547,-308.4498 178.966,-310.9781 182.7883,-316.8424"/>
</g>
<!-- v3 -->
<g id="node5" class="node">
<title>v3</title>
<ellipse fill="#000000" stroke="#000000" cx="58.6407" cy="-290.6" rx="1.8" ry="1.8"/>
</g>
<!-- v2&#45;&gt;v3 -->
<g id="edge4" class="edge">
<title>v2&#45;&gt;v3</title>
<path fill="none" stroke="#000000" d="M92.8905,-345.3193C86.0571,-334.6424 77.3071,-320.8924 69.6407,-308.6 68.129,-306.1761 66.5174,-303.5583 65.007,-301.0897"/>
<polygon fill="#000000" stroke="#000000" points="67.846,-299.022 59.6618,-292.2938 61.864,-302.6572 67.846,-299.022"/>
</g>
<!-- v6 -->
<g id="node6" class="node">
<title>v6</title>
<ellipse fill="none" stroke="#000000" cx="339.6407" cy="-203.6" rx="169.77" ry="18"/>
<text text-anchor="middle" x="339.6407" y="-199.9" font-family="Times,serif" font-size="14.00" fill="#000000">hybrid_vc:assamble_process:SUB_SAMPLE</text>
</g>
<!-- v4&#45;&gt;v6 -->
<g id="edge5" class="edge">
<title>v4&#45;&gt;v6</title>
<path fill="none" stroke="#000000" d="M237.3549,-272.6054C249.3778,-262.4766 264.9971,-249.845 279.6407,-239.6 285.7995,-235.2912 292.4863,-230.9621 299.086,-226.8744"/>
<polygon fill="#000000" stroke="#000000" points="301.2451,-229.6581 307.9739,-221.4744 297.6103,-223.6757 301.2451,-229.6581"/>
<text text-anchor="middle" x="315.6407" y="-243.4" font-family="Times,serif" font-size="14.00" fill="#000000">trimming_ch</text>
</g>
<!-- v10 -->
<g id="node8" class="node">
<title>v10</title>
<ellipse fill="none" stroke="#000000" cx="434.6407" cy="-131.1" rx="3.5" ry="3.5"/>
<text text-anchor="middle" x="420.1407" y="-138.4" font-family="Times,serif" font-size="14.00" fill="#000000">join</text>
</g>
<!-- v6&#45;&gt;v10 -->
<g id="edge7" class="edge">
<title>v6&#45;&gt;v10</title>
<path fill="none" stroke="#000000" d="M363.1239,-185.6786C382.4098,-170.9604 408.864,-150.7717 423.5942,-139.5302"/>
<polygon fill="#000000" stroke="#000000" points="425.8607,-142.2034 431.6868,-133.3543 421.6139,-136.6387 425.8607,-142.2034"/>
</g>
<!-- v5 -->
<g id="node7" class="node">
<title>v5</title>
<ellipse fill="#000000" stroke="#000000" cx="376.6407" cy="-290.6" rx="3.6" ry="3.6"/>
</g>
<!-- v5&#45;&gt;v6 -->
<g id="edge6" class="edge">
<title>v5&#45;&gt;v6</title>
<path fill="none" stroke="#000000" d="M375.0509,-286.8617C371.0093,-277.3586 360.0484,-251.5857 351.3819,-231.2076"/>
<polygon fill="#000000" stroke="#000000" points="354.4866,-229.5647 347.3521,-221.7322 348.045,-232.3043 354.4866,-229.5647"/>
<text text-anchor="middle" x="410.6407" y="-243.4" font-family="Times,serif" font-size="14.00" fill="#000000">genome_size_map</text>
</g>
<!-- v11 -->
<g id="node12" class="node">
<title>v11</title>
<ellipse fill="none" stroke="#000000" cx="434.6407" cy="-58.6" rx="178.9686" ry="18"/>
<text text-anchor="middle" x="434.6407" y="-54.9" font-family="Times,serif" font-size="14.00" fill="#000000">hybrid_vc:assamble_process:SUB_SAMPLE_1</text>
</g>
<!-- v10&#45;&gt;v11 -->
<g id="edge11" class="edge">
<title>v10&#45;&gt;v11</title>
<path fill="none" stroke="#000000" d="M434.6407,-127.2021C434.6407,-119.6027 434.6407,-102.203 434.6407,-86.8295"/>
<polygon fill="#000000" stroke="#000000" points="438.1408,-86.6553 434.6407,-76.6553 431.1408,-86.6553 438.1408,-86.6553"/>
<text text-anchor="middle" x="488.1407" y="-98.4" font-family="Times,serif" font-size="14.00" fill="#000000">reads_with_size_ch</text>
</g>
<!-- v7 -->
<g id="node9" class="node">
<title>v7</title>
<ellipse fill="#000000" stroke="#000000" cx="530.6407" cy="-363.6" rx="3.6" ry="3.6"/>
<text text-anchor="middle" x="477.0407" y="-371" font-family="Times,serif" font-size="14.00" fill="#000000">Channel.fromPath</text>
</g>
<!-- v8 -->
<g id="node10" class="node">
<title>v8</title>
<ellipse fill="none" stroke="#000000" cx="530.6407" cy="-290.6" rx="3.5" ry="3.5"/>
<text text-anchor="middle" x="504.6407" y="-297.9" font-family="Times,serif" font-size="14.00" fill="#000000">splitCsv</text>
</g>
<!-- v7&#45;&gt;v8 -->
<g id="edge8" class="edge">
<title>v7&#45;&gt;v8</title>
<path fill="none" stroke="#000000" d="M530.6407,-359.6752C530.6407,-349.3803 530.6407,-321.2227 530.6407,-304.204"/>
<polygon fill="#000000" stroke="#000000" points="534.1408,-304.1951 530.6407,-294.1952 527.1408,-304.1952 534.1408,-304.1951"/>
</g>
<!-- v9 -->
<g id="node11" class="node">
<title>v9</title>
<ellipse fill="none" stroke="#000000" cx="530.6407" cy="-203.6" rx="3.5" ry="3.5"/>
<text text-anchor="middle" x="539.6407" y="-210.9" font-family="Times,serif" font-size="14.00" fill="#000000">map</text>
</g>
<!-- v8&#45;&gt;v9 -->
<g id="edge9" class="edge">
<title>v8&#45;&gt;v9</title>
<path fill="none" stroke="#000000" d="M530.6407,-286.8617C530.6407,-275.0107 530.6407,-237.8578 530.6407,-217.4184"/>
<polygon fill="#000000" stroke="#000000" points="534.1408,-217.2275 530.6407,-207.2275 527.1408,-217.2276 534.1408,-217.2275"/>
</g>
<!-- v9&#45;&gt;v10 -->
<g id="edge10" class="edge">
<title>v9&#45;&gt;v10</title>
<path fill="none" stroke="#000000" d="M528.9531,-200.2532C526.8951,-196.4002 523.1301,-190.0337 518.6407,-185.6 496.5221,-163.7554 464.316,-145.8355 446.9087,-137.0166"/>
<polygon fill="#000000" stroke="#000000" points="448.3817,-133.8408 437.8614,-132.5858 445.3028,-140.1274 448.3817,-133.8408"/>
<text text-anchor="middle" x="540.1407" y="-156.4" font-family="Times,serif" font-size="14.00" fill="#000000">genome_size_ch</text>
</g>
<!-- v12 -->
<g id="node13" class="node">
<title>v12</title>
<ellipse fill="#000000" stroke="#000000" cx="434.6407" cy="-1.8" rx="1.8" ry="1.8"/>
</g>
<!-- v11&#45;&gt;v12 -->
<g id="edge12" class="edge">
<title>v11&#45;&gt;v12</title>
<path fill="none" stroke="#000000" d="M434.6407,-40.3155C434.6407,-31.6139 434.6407,-21.4551 434.6407,-13.756"/>
<polygon fill="#000000" stroke="#000000" points="438.1408,-13.6036 434.6407,-3.6036 431.1408,-13.6037 438.1408,-13.6036"/>
</g>
</g>
</svg>
