<?xml version="1.0" encoding="UTF-8" standalone="no"?>
<!DOCTYPE svg PUBLIC "-//W3C//DTD SVG 1.1//EN"
 "http://www.w3.org/Graphics/SVG/1.1/DTD/svg11.dtd">
<!-- Generated by graphviz version 2.40.1 (0)
 -->
<!-- Title: DVT_dag Pages: 1 -->
<svg width="1115pt" height="507pt"
 viewBox="0.00 0.00 1115.47 506.80" xmlns="http://www.w3.org/2000/svg" xmlns:xlink="http://www.w3.org/1999/xlink">
<g id="graph0" class="graph" transform="scale(1 1) rotate(0) translate(4 502.8)">
<title>DVT_dag</title>
<polygon fill="#ffffff" stroke="transparent" points="-4,4 -4,-502.8 1111.4683,-502.8 1111.4683,4 -4,4"/>
<!-- v0 -->
<g id="node1" class="node">
<title>v0</title>
<ellipse fill="#000000" stroke="#000000" cx="223.7341" cy="-480.2" rx="3.6" ry="3.6"/>
<text text-anchor="middle" x="170.1341" y="-487.6" font-family="Times,serif" font-size="14.00" fill="#000000">Channel.fromPath</text>
</g>
<!-- v1 -->
<g id="node2" class="node">
<title>v1</title>
<ellipse fill="none" stroke="#000000" cx="223.7341" cy="-436.1" rx="3.5" ry="3.5"/>
<text text-anchor="middle" x="207.7341" y="-443.4" font-family="Times,serif" font-size="14.00" fill="#000000">map</text>
</g>
<!-- v0&#45;&gt;v1 -->
<g id="edge1" class="edge">
<title>v0&#45;&gt;v1</title>
<path fill="none" stroke="#000000" d="M223.7341,-476.4401C223.7341,-470.6469 223.7341,-459.244 223.7341,-450.0354"/>
<polygon fill="#000000" stroke="#000000" points="227.2342,-449.8504 223.7341,-439.8504 220.2342,-449.8505 227.2342,-449.8504"/>
</g>
<!-- v2 -->
<g id="node3" class="node">
<title>v2</title>
<ellipse fill="none" stroke="#000000" cx="223.7341" cy="-363.6" rx="104.7816" ry="18"/>
<text text-anchor="middle" x="223.7341" y="-359.9" font-family="Times,serif" font-size="14.00" fill="#000000">hybrid_vc:pre_process:QC</text>
</g>
<!-- v1&#45;&gt;v2 -->
<g id="edge2" class="edge">
<title>v1&#45;&gt;v2</title>
<path fill="none" stroke="#000000" d="M223.7341,-432.2021C223.7341,-424.6027 223.7341,-407.203 223.7341,-391.8295"/>
<polygon fill="#000000" stroke="#000000" points="227.2342,-391.6553 223.7341,-381.6553 220.2342,-391.6553 227.2342,-391.6553"/>
<text text-anchor="middle" x="266.2341" y="-403.4" font-family="Times,serif" font-size="14.00" fill="#000000">barcode_dir_ch</text>
</g>
<!-- v4 -->
<g id="node4" class="node">
<title>v4</title>
<ellipse fill="none" stroke="#000000" cx="335.7341" cy="-290.6" rx="138.3755" ry="18"/>
<text text-anchor="middle" x="335.7341" y="-286.9" font-family="Times,serif" font-size="14.00" fill="#000000">hybrid_vc:pre_process:TRIMMING</text>
</g>
<!-- v2&#45;&gt;v4 -->
<g id="edge3" class="edge">
<title>v2&#45;&gt;v4</title>
<path fill="none" stroke="#000000" d="M250.5609,-346.1147C265.3039,-336.5054 283.7895,-324.4568 299.7685,-314.0419"/>
<polygon fill="#000000" stroke="#000000" points="301.8817,-316.8424 308.3482,-308.4498 298.0594,-310.9781 301.8817,-316.8424"/>
</g>
<!-- v3 -->
<g id="node5" class="node">
<title>v3</title>
<ellipse fill="#000000" stroke="#000000" cx="177.7341" cy="-290.6" rx="1.8" ry="1.8"/>
</g>
<!-- v2&#45;&gt;v3 -->
<g id="edge4" class="edge">
<title>v2&#45;&gt;v3</title>
<path fill="none" stroke="#000000" d="M211.9839,-345.3193C205.1505,-334.6424 196.4005,-320.8924 188.7341,-308.6 187.2225,-306.1761 185.6108,-303.5583 184.1004,-301.0897"/>
<polygon fill="#000000" stroke="#000000" points="186.9395,-299.022 178.7552,-292.2938 180.9574,-302.6572 186.9395,-299.022"/>
</g>
<!-- v6 -->
<g id="node6" class="node">
<title>v6</title>
<ellipse fill="none" stroke="#000000" cx="458.7341" cy="-203.6" rx="169.77" ry="18"/>
<text text-anchor="middle" x="458.7341" y="-199.9" font-family="Times,serif" font-size="14.00" fill="#000000">hybrid_vc:assamble_process:SUB_SAMPLE</text>
</g>
<!-- v4&#45;&gt;v6 -->
<g id="edge5" class="edge">
<title>v4&#45;&gt;v6</title>
<path fill="none" stroke="#000000" d="M356.4483,-272.6054C368.4712,-262.4766 384.0905,-249.845 398.7341,-239.6 404.893,-235.2912 411.5797,-230.9621 418.1795,-226.8744"/>
<polygon fill="#000000" stroke="#000000" points="420.3385,-229.6581 427.0674,-221.4744 416.7037,-223.6757 420.3385,-229.6581"/>
<text text-anchor="middle" x="434.7341" y="-243.4" font-family="Times,serif" font-size="14.00" fill="#000000">trimming_ch</text>
</g>
<!-- v10 -->
<g id="node8" class="node">
<title>v10</title>
<ellipse fill="none" stroke="#000000" cx="553.7341" cy="-131.1" rx="3.5" ry="3.5"/>
<text text-anchor="middle" x="539.2341" y="-138.4" font-family="Times,serif" font-size="14.00" fill="#000000">join</text>
</g>
<!-- v6&#45;&gt;v10 -->
<g id="edge7" class="edge">
<title>v6&#45;&gt;v10</title>
<path fill="none" stroke="#000000" d="M482.2173,-185.6786C501.5032,-170.9604 527.9574,-150.7717 542.6876,-139.5302"/>
<polygon fill="#000000" stroke="#000000" points="544.9541,-142.2034 550.7802,-133.3543 540.7073,-136.6387 544.9541,-142.2034"/>
</g>
<!-- v5 -->
<g id="node7" class="node">
<title>v5</title>
<ellipse fill="#000000" stroke="#000000" cx="495.7341" cy="-290.6" rx="3.6" ry="3.6"/>
</g>
<!-- v5&#45;&gt;v6 -->
<g id="edge6" class="edge">
<title>v5&#45;&gt;v6</title>
<path fill="none" stroke="#000000" d="M494.1443,-286.8617C490.1027,-277.3586 479.1419,-251.5857 470.4753,-231.2076"/>
<polygon fill="#000000" stroke="#000000" points="473.58,-229.5647 466.4455,-221.7322 467.1384,-232.3043 473.58,-229.5647"/>
<text text-anchor="middle" x="529.7341" y="-243.4" font-family="Times,serif" font-size="14.00" fill="#000000">genome_size_map</text>
</g>
<!-- v11 -->
<g id="node12" class="node">
<title>v11</title>
<ellipse fill="none" stroke="#000000" cx="178.7341" cy="-58.6" rx="178.9686" ry="18"/>
<text text-anchor="middle" x="178.7341" y="-54.9" font-family="Times,serif" font-size="14.00" fill="#000000">hybrid_vc:assamble_process:SUB_SAMPLE_1</text>
</g>
<!-- v10&#45;&gt;v11 -->
<g id="edge11" class="edge">
<title>v10&#45;&gt;v11</title>
<path fill="none" stroke="#000000" d="M550.0226,-130.3824C524.478,-125.4438 372.7156,-96.1031 271.2955,-76.4952"/>
<polygon fill="#000000" stroke="#000000" points="271.8203,-73.0319 261.3377,-74.57 270.4915,-79.9046 271.8203,-73.0319"/>
<text text-anchor="middle" x="485.2341" y="-98.4" font-family="Times,serif" font-size="14.00" fill="#000000">reads_with_size_ch</text>
</g>
<!-- v13 -->
<g id="node14" class="node">
<title>v13</title>
<ellipse fill="none" stroke="#000000" cx="553.7341" cy="-58.6" rx="178.9686" ry="18"/>
<text text-anchor="middle" x="553.7341" y="-54.9" font-family="Times,serif" font-size="14.00" fill="#000000">hybrid_vc:assamble_process:SUB_SAMPLE_2</text>
</g>
<!-- v10&#45;&gt;v13 -->
<g id="edge13" class="edge">
<title>v10&#45;&gt;v13</title>
<path fill="none" stroke="#000000" d="M553.7341,-127.2021C553.7341,-119.6027 553.7341,-102.203 553.7341,-86.8295"/>
<polygon fill="#000000" stroke="#000000" points="557.2342,-86.6553 553.7341,-76.6553 550.2342,-86.6553 557.2342,-86.6553"/>
<text text-anchor="middle" x="607.2341" y="-98.4" font-family="Times,serif" font-size="14.00" fill="#000000">reads_with_size_ch</text>
</g>
<!-- v15 -->
<g id="node16" class="node">
<title>v15</title>
<ellipse fill="none" stroke="#000000" cx="928.7341" cy="-58.6" rx="178.9686" ry="18"/>
<text text-anchor="middle" x="928.7341" y="-54.9" font-family="Times,serif" font-size="14.00" fill="#000000">hybrid_vc:assamble_process:SUB_SAMPLE_3</text>
</g>
<!-- v10&#45;&gt;v15 -->
<g id="edge15" class="edge">
<title>v10&#45;&gt;v15</title>
<path fill="none" stroke="#000000" d="M557.4456,-130.3824C582.9903,-125.4438 734.7527,-96.1031 836.1728,-76.4952"/>
<polygon fill="#000000" stroke="#000000" points="836.9768,-79.9046 846.1306,-74.57 835.648,-73.0319 836.9768,-79.9046"/>
<text text-anchor="middle" x="794.2341" y="-98.4" font-family="Times,serif" font-size="14.00" fill="#000000">reads_with_size_ch</text>
</g>
<!-- v7 -->
<g id="node9" class="node">
<title>v7</title>
<ellipse fill="#000000" stroke="#000000" cx="649.7341" cy="-363.6" rx="3.6" ry="3.6"/>
<text text-anchor="middle" x="596.1341" y="-371" font-family="Times,serif" font-size="14.00" fill="#000000">Channel.fromPath</text>
</g>
<!-- v8 -->
<g id="node10" class="node">
<title>v8</title>
<ellipse fill="none" stroke="#000000" cx="649.7341" cy="-290.6" rx="3.5" ry="3.5"/>
<text text-anchor="middle" x="623.7341" y="-297.9" font-family="Times,serif" font-size="14.00" fill="#000000">splitCsv</text>
</g>
<!-- v7&#45;&gt;v8 -->
<g id="edge8" class="edge">
<title>v7&#45;&gt;v8</title>
<path fill="none" stroke="#000000" d="M649.7341,-359.6752C649.7341,-349.3803 649.7341,-321.2227 649.7341,-304.204"/>
<polygon fill="#000000" stroke="#000000" points="653.2342,-304.1951 649.7341,-294.1952 646.2342,-304.1952 653.2342,-304.1951"/>
</g>
<!-- v9 -->
<g id="node11" class="node">
<title>v9</title>
<ellipse fill="none" stroke="#000000" cx="649.7341" cy="-203.6" rx="3.5" ry="3.5"/>
<text text-anchor="middle" x="658.7341" y="-210.9" font-family="Times,serif" font-size="14.00" fill="#000000">map</text>
</g>
<!-- v8&#45;&gt;v9 -->
<g id="edge9" class="edge">
<title>v8&#45;&gt;v9</title>
<path fill="none" stroke="#000000" d="M649.7341,-286.8617C649.7341,-275.0107 649.7341,-237.8578 649.7341,-217.4184"/>
<polygon fill="#000000" stroke="#000000" points="653.2342,-217.2275 649.7341,-207.2275 646.2342,-217.2276 653.2342,-217.2275"/>
</g>
<!-- v9&#45;&gt;v10 -->
<g id="edge10" class="edge">
<title>v9&#45;&gt;v10</title>
<path fill="none" stroke="#000000" d="M648.0465,-200.2532C645.9885,-196.4002 642.2235,-190.0337 637.7341,-185.6 615.6155,-163.7554 583.4094,-145.8355 566.0021,-137.0166"/>
<polygon fill="#000000" stroke="#000000" points="567.4751,-133.8408 556.9548,-132.5858 564.3962,-140.1274 567.4751,-133.8408"/>
<text text-anchor="middle" x="659.2341" y="-156.4" font-family="Times,serif" font-size="14.00" fill="#000000">genome_size_ch</text>
</g>
<!-- v12 -->
<g id="node13" class="node">
<title>v12</title>
<ellipse fill="#000000" stroke="#000000" cx="178.7341" cy="-1.8" rx="1.8" ry="1.8"/>
</g>
<!-- v11&#45;&gt;v12 -->
<g id="edge12" class="edge">
<title>v11&#45;&gt;v12</title>
<path fill="none" stroke="#000000" d="M178.7341,-40.3155C178.7341,-31.6139 178.7341,-21.4551 178.7341,-13.756"/>
<polygon fill="#000000" stroke="#000000" points="182.2342,-13.6036 178.7341,-3.6036 175.2342,-13.6037 182.2342,-13.6036"/>
</g>
<!-- v14 -->
<g id="node15" class="node">
<title>v14</title>
<ellipse fill="#000000" stroke="#000000" cx="553.7341" cy="-1.8" rx="1.8" ry="1.8"/>
</g>
<!-- v13&#45;&gt;v14 -->
<g id="edge14" class="edge">
<title>v13&#45;&gt;v14</title>
<path fill="none" stroke="#000000" d="M553.7341,-40.3155C553.7341,-31.6139 553.7341,-21.4551 553.7341,-13.756"/>
<polygon fill="#000000" stroke="#000000" points="557.2342,-13.6036 553.7341,-3.6036 550.2342,-13.6037 557.2342,-13.6036"/>
</g>
<!-- v16 -->
<g id="node17" class="node">
<title>v16</title>
<ellipse fill="#000000" stroke="#000000" cx="928.7341" cy="-1.8" rx="1.8" ry="1.8"/>
</g>
<!-- v15&#45;&gt;v16 -->
<g id="edge16" class="edge">
<title>v15&#45;&gt;v16</title>
<path fill="none" stroke="#000000" d="M928.7341,-40.3155C928.7341,-31.6139 928.7341,-21.4551 928.7341,-13.756"/>
<polygon fill="#000000" stroke="#000000" points="932.2342,-13.6036 928.7341,-3.6036 925.2342,-13.6037 932.2342,-13.6036"/>
</g>
</g>
</svg>
