<?xml version="1.0" encoding="UTF-8" standalone="no"?>
<!DOCTYPE svg PUBLIC "-//W3C//DTD SVG 1.1//EN"
 "http://www.w3.org/Graphics/SVG/1.1/DTD/svg11.dtd">
<!-- Generated by graphviz version 2.40.1 (0)
 -->
<!-- Title: DVT_dag Pages: 1 -->
<svg width="600pt" height="901pt"
 viewBox="0.00 0.00 599.87 901.00" xmlns="http://www.w3.org/2000/svg" xmlns:xlink="http://www.w3.org/1999/xlink">
<g id="graph0" class="graph" transform="scale(1 1) rotate(0) translate(4 897)">
<title>DVT_dag</title>
<polygon fill="#ffffff" stroke="transparent" points="-4,4 -4,-897 595.8743,-897 595.8743,4 -4,4"/>
<!-- v0 -->
<g id="node1" class="node">
<title>v0</title>
<ellipse fill="#000000" stroke="#000000" cx="304.936" cy="-874.4" rx="3.6" ry="3.6"/>
<text text-anchor="middle" x="251.336" y="-881.8" font-family="Times,serif" font-size="14.00" fill="#000000">Channel.fromPath</text>
</g>
<!-- v1 -->
<g id="node2" class="node">
<title>v1</title>
<ellipse fill="none" stroke="#000000" cx="304.936" cy="-830.2" rx="3.5" ry="3.5"/>
<text text-anchor="middle" x="288.936" y="-837.5" font-family="Times,serif" font-size="14.00" fill="#000000">map</text>
</g>
<!-- v0&#45;&gt;v1 -->
<g id="edge1" class="edge">
<title>v0&#45;&gt;v1</title>
<path fill="none" stroke="#000000" d="M304.936,-870.6315C304.936,-864.8252 304.936,-853.3965 304.936,-844.167"/>
<polygon fill="#000000" stroke="#000000" points="308.4361,-843.9589 304.936,-833.9589 301.4361,-843.959 308.4361,-843.9589"/>
</g>
<!-- v2 -->
<g id="node3" class="node">
<title>v2</title>
<ellipse fill="none" stroke="#000000" cx="304.936" cy="-757.6" rx="102.8821" ry="18"/>
<text text-anchor="middle" x="304.936" y="-753.9" font-family="Times,serif" font-size="14.00" fill="#000000">assemble:pre_process:QC</text>
</g>
<!-- v1&#45;&gt;v2 -->
<g id="edge2" class="edge">
<title>v1&#45;&gt;v2</title>
<path fill="none" stroke="#000000" d="M304.936,-826.6984C304.936,-819.334 304.936,-801.6304 304.936,-785.9875"/>
<polygon fill="#000000" stroke="#000000" points="308.4361,-785.6393 304.936,-775.6393 301.4361,-785.6394 308.4361,-785.6393"/>
<text text-anchor="middle" x="347.436" y="-797.4" font-family="Times,serif" font-size="14.00" fill="#000000">barcode_dir_ch</text>
</g>
<!-- v4 -->
<g id="node4" class="node">
<title>v4</title>
<ellipse fill="none" stroke="#000000" cx="343.936" cy="-684.6" rx="136.4758" ry="18"/>
<text text-anchor="middle" x="343.936" y="-680.9" font-family="Times,serif" font-size="14.00" fill="#000000">assemble:pre_process:TRIMMING</text>
</g>
<!-- v2&#45;&gt;v4 -->
<g id="edge3" class="edge">
<title>v2&#45;&gt;v4</title>
<path fill="none" stroke="#000000" d="M314.5764,-739.5551C319.0765,-731.1319 324.5272,-720.9292 329.5045,-711.6128"/>
<polygon fill="#000000" stroke="#000000" points="332.6461,-713.1598 334.2713,-702.6904 326.472,-709.8613 332.6461,-713.1598"/>
</g>
<!-- v3 -->
<g id="node5" class="node">
<title>v3</title>
<ellipse fill="#000000" stroke="#000000" cx="187.936" cy="-684.6" rx="1.8" ry="1.8"/>
</g>
<!-- v2&#45;&gt;v3 -->
<g id="edge4" class="edge">
<title>v2&#45;&gt;v3</title>
<path fill="none" stroke="#000000" d="M261.0743,-741.3116C240.5454,-732.1625 216.7532,-719.213 198.936,-702.6 196.7663,-700.577 194.8684,-698.0321 193.2875,-695.4982"/>
<polygon fill="#000000" stroke="#000000" points="196.3612,-693.8216 188.6904,-686.5134 190.1295,-697.01 196.3612,-693.8216"/>
</g>
<!-- v8 -->
<g id="node6" class="node">
<title>v8</title>
<ellipse fill="none" stroke="#000000" cx="157.936" cy="-612.1" rx="3.5" ry="3.5"/>
<text text-anchor="middle" x="143.436" y="-619.4" font-family="Times,serif" font-size="14.00" fill="#000000">join</text>
</g>
<!-- v4&#45;&gt;v8 -->
<g id="edge5" class="edge">
<title>v4&#45;&gt;v8</title>
<path fill="none" stroke="#000000" d="M298.5877,-667.4219C285.2594,-661.8933 270.8086,-655.4194 257.936,-648.6 247.1518,-642.8869 246.0539,-638.633 234.936,-633.6 213.7847,-624.0249 187.3977,-617.7831 171.6488,-614.6069"/>
<polygon fill="#000000" stroke="#000000" points="172.078,-611.1262 161.6025,-612.7116 170.7803,-618.0048 172.078,-611.1262"/>
<text text-anchor="middle" x="293.936" y="-637.4" font-family="Times,serif" font-size="14.00" fill="#000000">trimming_ch</text>
</g>
<!-- v11 -->
<g id="node11" class="node">
<title>v11</title>
<ellipse fill="none" stroke="#000000" cx="239.936" cy="-481.1" rx="3.5" ry="3.5"/>
<text text-anchor="middle" x="225.436" y="-488.4" font-family="Times,serif" font-size="14.00" fill="#000000">join</text>
</g>
<!-- v4&#45;&gt;v11 -->
<g id="edge13" class="edge">
<title>v4&#45;&gt;v11</title>
<path fill="none" stroke="#000000" d="M343.9777,-666.5392C343.7271,-629.0725 341.3079,-544.4798 324.936,-521.6 307.8441,-497.7141 272.8716,-487.4066 253.5383,-483.3837"/>
<polygon fill="#000000" stroke="#000000" points="254.0903,-479.9268 243.6278,-481.5966 252.848,-486.8157 254.0903,-479.9268"/>
<text text-anchor="middle" x="375.936" y="-579.4" font-family="Times,serif" font-size="14.00" fill="#000000">trimming_ch</text>
</g>
<!-- v15 -->
<g id="node16" class="node">
<title>v15</title>
<ellipse fill="none" stroke="#000000" cx="319.936" cy="-248.1" rx="3.5" ry="3.5"/>
<text text-anchor="middle" x="305.436" y="-255.4" font-family="Times,serif" font-size="14.00" fill="#000000">join</text>
</g>
<!-- v4&#45;&gt;v15 -->
<g id="edge18" class="edge">
<title>v4&#45;&gt;v15</title>
<path fill="none" stroke="#000000" d="M386.9262,-667.501C408.8448,-655.6741 430.936,-637.463 430.936,-612.1 430.936,-612.1 430.936,-612.1 430.936,-306.6 430.936,-263.1422 363.5253,-251.8902 333.7698,-249.0403"/>
<polygon fill="#000000" stroke="#000000" points="333.8672,-245.5376 323.6292,-248.264 333.3328,-252.5172 333.8672,-245.5376"/>
<text text-anchor="middle" x="466.936" y="-448.4" font-family="Times,serif" font-size="14.00" fill="#000000">trimming_ch</text>
</g>
<!-- v9 -->
<g id="node10" class="node">
<title>v9</title>
<ellipse fill="none" stroke="#000000" cx="157.936" cy="-539.6" rx="157.872" ry="18"/>
<text text-anchor="middle" x="157.936" y="-535.9" font-family="Times,serif" font-size="14.00" fill="#000000">assemble:assamble_process:ASSEMBLE</text>
</g>
<!-- v8&#45;&gt;v9 -->
<g id="edge9" class="edge">
<title>v8&#45;&gt;v9</title>
<path fill="none" stroke="#000000" d="M157.936,-608.2021C157.936,-600.6027 157.936,-583.203 157.936,-567.8295"/>
<polygon fill="#000000" stroke="#000000" points="161.4361,-567.6553 157.936,-557.6553 154.4361,-567.6553 161.4361,-567.6553"/>
<text text-anchor="middle" x="211.436" y="-579.4" font-family="Times,serif" font-size="14.00" fill="#000000">reads_with_size_ch</text>
</g>
<!-- v5 -->
<g id="node7" class="node">
<title>v5</title>
<ellipse fill="#000000" stroke="#000000" cx="142.936" cy="-830.2" rx="3.6" ry="3.6"/>
<text text-anchor="middle" x="89.336" y="-837.6" font-family="Times,serif" font-size="14.00" fill="#000000">Channel.fromPath</text>
</g>
<!-- v6 -->
<g id="node8" class="node">
<title>v6</title>
<ellipse fill="none" stroke="#000000" cx="142.936" cy="-757.6" rx="3.5" ry="3.5"/>
<text text-anchor="middle" x="116.936" y="-764.9" font-family="Times,serif" font-size="14.00" fill="#000000">splitCsv</text>
</g>
<!-- v5&#45;&gt;v6 -->
<g id="edge6" class="edge">
<title>v5&#45;&gt;v6</title>
<path fill="none" stroke="#000000" d="M142.936,-826.2967C142.936,-816.1576 142.936,-788.597 142.936,-771.6256"/>
<polygon fill="#000000" stroke="#000000" points="146.4361,-771.1754 142.936,-761.1755 139.4361,-771.1755 146.4361,-771.1754"/>
</g>
<!-- v7 -->
<g id="node9" class="node">
<title>v7</title>
<ellipse fill="none" stroke="#000000" cx="142.936" cy="-684.6" rx="3.5" ry="3.5"/>
<text text-anchor="middle" x="126.936" y="-691.9" font-family="Times,serif" font-size="14.00" fill="#000000">map</text>
</g>
<!-- v6&#45;&gt;v7 -->
<g id="edge7" class="edge">
<title>v6&#45;&gt;v7</title>
<path fill="none" stroke="#000000" d="M142.936,-754.0791C142.936,-744.1785 142.936,-715.6936 142.936,-698.4241"/>
<polygon fill="#000000" stroke="#000000" points="146.4361,-698.2575 142.936,-688.2576 139.4361,-698.2576 146.4361,-698.2575"/>
</g>
<!-- v7&#45;&gt;v8 -->
<g id="edge8" class="edge">
<title>v7&#45;&gt;v8</title>
<path fill="none" stroke="#000000" d="M142.3487,-681.032C141.0947,-672.567 138.6768,-650.6983 143.936,-633.6 145.0883,-629.8535 147.1028,-626.1422 149.2504,-622.8846"/>
<polygon fill="#000000" stroke="#000000" points="152.0688,-624.9607 155.3641,-614.8914 146.5087,-620.708 152.0688,-624.9607"/>
<text text-anchor="middle" x="189.436" y="-637.4" font-family="Times,serif" font-size="14.00" fill="#000000">genome_size_ch</text>
</g>
<!-- v9&#45;&gt;v11 -->
<g id="edge10" class="edge">
<title>v9&#45;&gt;v11</title>
<path fill="none" stroke="#000000" d="M182.9843,-521.7302C198.1384,-510.919 216.737,-497.6505 228.4665,-489.2825"/>
<polygon fill="#000000" stroke="#000000" points="230.6387,-492.0323 236.7467,-483.3753 226.5732,-486.3338 230.6387,-492.0323"/>
</g>
<!-- v10 -->
<g id="node12" class="node">
<title>v10</title>
<ellipse fill="none" stroke="#000000" cx="157.936" cy="-481.1" rx="3.5" ry="3.5"/>
<text text-anchor="middle" x="141.936" y="-488.4" font-family="Times,serif" font-size="14.00" fill="#000000">map</text>
</g>
<!-- v9&#45;&gt;v10 -->
<g id="edge11" class="edge">
<title>v9&#45;&gt;v10</title>
<path fill="none" stroke="#000000" d="M157.936,-521.4109C157.936,-512.9587 157.936,-503.0613 157.936,-495.189"/>
<polygon fill="#000000" stroke="#000000" points="161.4361,-494.9836 157.936,-484.9837 154.4361,-494.9837 161.4361,-494.9836"/>
</g>
<!-- v12 -->
<g id="node13" class="node">
<title>v12</title>
<ellipse fill="none" stroke="#000000" cx="209.936" cy="-423.1" rx="3.5" ry="3.5"/>
<text text-anchor="middle" x="195.436" y="-430.4" font-family="Times,serif" font-size="14.00" fill="#000000">join</text>
</g>
<!-- v11&#45;&gt;v12 -->
<g id="edge14" class="edge">
<title>v11&#45;&gt;v12</title>
<path fill="none" stroke="#000000" d="M238.9263,-477.5375C236.9519,-470.8397 232.2178,-456.0169 225.936,-444.6 223.8542,-440.8165 221.1789,-436.9504 218.614,-433.5589"/>
<polygon fill="#000000" stroke="#000000" points="221.2767,-431.2855 212.2617,-425.7195 215.838,-435.6925 221.2767,-431.2855"/>
</g>
<!-- v10&#45;&gt;v12 -->
<g id="edge12" class="edge">
<title>v10&#45;&gt;v12</title>
<path fill="none" stroke="#000000" d="M156.3608,-477.7209C153.4006,-470.8199 147.9089,-454.8918 154.936,-444.6 159.7686,-437.5222 181.747,-430.5192 196.4151,-426.512"/>
<polygon fill="#000000" stroke="#000000" points="197.6718,-429.8024 206.48,-423.9147 195.9226,-423.0244 197.6718,-429.8024"/>
<text text-anchor="middle" x="188.436" y="-448.4" font-family="Times,serif" font-size="14.00" fill="#000000">coverage_ch</text>
</g>
<!-- v13 -->
<g id="node14" class="node">
<title>v13</title>
<ellipse fill="none" stroke="#000000" cx="209.936" cy="-379.1" rx="3.5" ry="3.5"/>
<text text-anchor="middle" x="193.936" y="-386.4" font-family="Times,serif" font-size="14.00" fill="#000000">map</text>
</g>
<!-- v12&#45;&gt;v13 -->
<g id="edge15" class="edge">
<title>v12&#45;&gt;v13</title>
<path fill="none" stroke="#000000" d="M209.936,-419.3486C209.936,-413.5686 209.936,-402.1915 209.936,-393.0038"/>
<polygon fill="#000000" stroke="#000000" points="213.4361,-392.8419 209.936,-382.8419 206.4361,-392.842 213.4361,-392.8419"/>
</g>
<!-- v14 -->
<g id="node15" class="node">
<title>v14</title>
<ellipse fill="none" stroke="#000000" cx="209.936" cy="-306.6" rx="193.0657" ry="18"/>
<text text-anchor="middle" x="209.936" y="-302.9" font-family="Times,serif" font-size="14.00" fill="#000000">assemble:assamble_process:POLISHING_ROUND</text>
</g>
<!-- v13&#45;&gt;v14 -->
<g id="edge16" class="edge">
<title>v13&#45;&gt;v14</title>
<path fill="none" stroke="#000000" d="M209.936,-375.2021C209.936,-367.6027 209.936,-350.203 209.936,-334.8295"/>
<polygon fill="#000000" stroke="#000000" points="213.4361,-334.6553 209.936,-324.6553 206.4361,-334.6553 213.4361,-334.6553"/>
<text text-anchor="middle" x="242.936" y="-346.4" font-family="Times,serif" font-size="14.00" fill="#000000">polished_ch</text>
</g>
<!-- v14&#45;&gt;v15 -->
<g id="edge17" class="edge">
<title>v14&#45;&gt;v15</title>
<path fill="none" stroke="#000000" d="M243.5373,-288.7302C265.2975,-277.1578 292.352,-262.7697 307.732,-254.5903"/>
<polygon fill="#000000" stroke="#000000" points="309.4395,-257.6464 316.6252,-249.8607 306.1527,-251.4661 309.4395,-257.6464"/>
</g>
<!-- v16 -->
<g id="node17" class="node">
<title>v16</title>
<ellipse fill="none" stroke="#000000" cx="319.936" cy="-204.1" rx="3.5" ry="3.5"/>
<text text-anchor="middle" x="303.936" y="-211.4" font-family="Times,serif" font-size="14.00" fill="#000000">map</text>
</g>
<!-- v15&#45;&gt;v16 -->
<g id="edge19" class="edge">
<title>v15&#45;&gt;v16</title>
<path fill="none" stroke="#000000" d="M319.936,-244.3486C319.936,-238.5686 319.936,-227.1915 319.936,-218.0038"/>
<polygon fill="#000000" stroke="#000000" points="323.4361,-217.8419 319.936,-207.8419 316.4361,-217.842 323.4361,-217.8419"/>
</g>
<!-- v17 -->
<g id="node18" class="node">
<title>v17</title>
<ellipse fill="none" stroke="#000000" cx="319.936" cy="-131.6" rx="150.2735" ry="18"/>
<text text-anchor="middle" x="319.936" y="-127.9" font-family="Times,serif" font-size="14.00" fill="#000000">assemble:assamble_process:MEDAKA</text>
</g>
<!-- v16&#45;&gt;v17 -->
<g id="edge20" class="edge">
<title>v16&#45;&gt;v17</title>
<path fill="none" stroke="#000000" d="M319.936,-200.2021C319.936,-192.6027 319.936,-175.203 319.936,-159.8295"/>
<polygon fill="#000000" stroke="#000000" points="323.4361,-159.6553 319.936,-149.6553 316.4361,-159.6553 323.4361,-159.6553"/>
<text text-anchor="middle" x="351.436" y="-171.4" font-family="Times,serif" font-size="14.00" fill="#000000">medaka_ch</text>
</g>
<!-- v18 -->
<g id="node19" class="node">
<title>v18</title>
<ellipse fill="#000000" stroke="#000000" cx="307.936" cy="-58.6" rx="1.8" ry="1.8"/>
</g>
<!-- v17&#45;&gt;v18 -->
<g id="edge21" class="edge">
<title>v17&#45;&gt;v18</title>
<path fill="none" stroke="#000000" d="M316.9697,-113.5551C314.7509,-100.0574 311.781,-81.9904 309.863,-70.3224"/>
<polygon fill="#000000" stroke="#000000" points="313.3163,-69.7523 308.2405,-60.4525 306.409,-70.8878 313.3163,-69.7523"/>
</g>
<!-- v19 -->
<g id="node20" class="node">
<title>v19</title>
<ellipse fill="none" stroke="#000000" cx="459.936" cy="-58.6" rx="131.8766" ry="18"/>
<text text-anchor="middle" x="459.936" y="-54.9" font-family="Times,serif" font-size="14.00" fill="#000000">assemble:assamble_process:AMR</text>
</g>
<!-- v17&#45;&gt;v19 -->
<g id="edge22" class="edge">
<title>v17&#45;&gt;v19</title>
<path fill="none" stroke="#000000" d="M353.8261,-113.9287C372.9142,-103.9757 396.9353,-91.4503 417.2931,-80.8352"/>
<polygon fill="#000000" stroke="#000000" points="419.1092,-83.8355 426.358,-76.1085 415.8728,-77.6286 419.1092,-83.8355"/>
</g>
<!-- v20 -->
<g id="node21" class="node">
<title>v20</title>
<ellipse fill="#000000" stroke="#000000" cx="459.936" cy="-1.8" rx="1.8" ry="1.8"/>
</g>
<!-- v19&#45;&gt;v20 -->
<g id="edge23" class="edge">
<title>v19&#45;&gt;v20</title>
<path fill="none" stroke="#000000" d="M459.936,-40.3155C459.936,-31.6139 459.936,-21.4551 459.936,-13.756"/>
<polygon fill="#000000" stroke="#000000" points="463.4361,-13.6036 459.936,-3.6036 456.4361,-13.6037 463.4361,-13.6036"/>
</g>
</g>
</svg>
