<?xml version="1.0" encoding="UTF-8" standalone="no"?>
<!DOCTYPE svg PUBLIC "-//W3C//DTD SVG 1.1//EN"
 "http://www.w3.org/Graphics/SVG/1.1/DTD/svg11.dtd">
<!-- Generated by graphviz version 2.40.1 (0)
 -->
<!-- Title: DVT_dag Pages: 1 -->
<svg width="621pt" height="901pt"
 viewBox="0.00 0.00 621.14 901.00" xmlns="http://www.w3.org/2000/svg" xmlns:xlink="http://www.w3.org/1999/xlink">
<g id="graph0" class="graph" transform="scale(1 1) rotate(0) translate(4 897)">
<title>DVT_dag</title>
<polygon fill="#ffffff" stroke="transparent" points="-4,4 -4,-897 617.1367,-897 617.1367,4 -4,4"/>
<!-- v0 -->
<g id="node1" class="node">
<title>v0</title>
<ellipse fill="#000000" stroke="#000000" cx="223.1367" cy="-874.4" rx="3.6" ry="3.6"/>
<text text-anchor="middle" x="169.5367" y="-881.8" font-family="Times,serif" font-size="14.00" fill="#000000">Channel.fromPath</text>
</g>
<!-- v1 -->
<g id="node2" class="node">
<title>v1</title>
<ellipse fill="none" stroke="#000000" cx="223.1367" cy="-830.2" rx="3.5" ry="3.5"/>
<text text-anchor="middle" x="207.1367" y="-837.5" font-family="Times,serif" font-size="14.00" fill="#000000">map</text>
</g>
<!-- v0&#45;&gt;v1 -->
<g id="edge1" class="edge">
<title>v0&#45;&gt;v1</title>
<path fill="none" stroke="#000000" d="M223.1367,-870.6315C223.1367,-864.8252 223.1367,-853.3965 223.1367,-844.167"/>
<polygon fill="#000000" stroke="#000000" points="226.6368,-843.9589 223.1367,-833.9589 219.6368,-843.959 226.6368,-843.9589"/>
</g>
<!-- v2 -->
<g id="node3" class="node">
<title>v2</title>
<ellipse fill="none" stroke="#000000" cx="223.1367" cy="-757.6" rx="102.8821" ry="18"/>
<text text-anchor="middle" x="223.1367" y="-753.9" font-family="Times,serif" font-size="14.00" fill="#000000">assemble:pre_process:QC</text>
</g>
<!-- v1&#45;&gt;v2 -->
<g id="edge2" class="edge">
<title>v1&#45;&gt;v2</title>
<path fill="none" stroke="#000000" d="M223.1367,-826.6984C223.1367,-819.334 223.1367,-801.6304 223.1367,-785.9875"/>
<polygon fill="#000000" stroke="#000000" points="226.6368,-785.6393 223.1367,-775.6393 219.6368,-785.6394 226.6368,-785.6393"/>
<text text-anchor="middle" x="265.6367" y="-797.4" font-family="Times,serif" font-size="14.00" fill="#000000">barcode_dir_ch</text>
</g>
<!-- v4 -->
<g id="node4" class="node">
<title>v4</title>
<ellipse fill="none" stroke="#000000" cx="176.1367" cy="-684.6" rx="136.4758" ry="18"/>
<text text-anchor="middle" x="176.1367" y="-680.9" font-family="Times,serif" font-size="14.00" fill="#000000">assemble:pre_process:TRIMMING</text>
</g>
<!-- v2&#45;&gt;v4 -->
<g id="edge3" class="edge">
<title>v2&#45;&gt;v4</title>
<path fill="none" stroke="#000000" d="M211.5187,-739.5551C206.0391,-731.0441 199.3898,-720.7165 193.3412,-711.3219"/>
<polygon fill="#000000" stroke="#000000" points="196.1402,-709.2037 187.7839,-702.6904 190.2545,-712.9931 196.1402,-709.2037"/>
</g>
<!-- v3 -->
<g id="node5" class="node">
<title>v3</title>
<ellipse fill="#000000" stroke="#000000" cx="332.1367" cy="-684.6" rx="1.8" ry="1.8"/>
</g>
<!-- v2&#45;&gt;v3 -->
<g id="edge4" class="edge">
<title>v2&#45;&gt;v3</title>
<path fill="none" stroke="#000000" d="M263.4147,-740.8095C282.4416,-731.5075 304.5582,-718.574 321.1367,-702.6 323.2729,-700.5417 325.1585,-697.9839 326.7383,-695.4487"/>
<polygon fill="#000000" stroke="#000000" points="329.8825,-696.988 331.3674,-686.4977 323.6648,-693.7724 329.8825,-696.988"/>
</g>
<!-- v8 -->
<g id="node6" class="node">
<title>v8</title>
<ellipse fill="none" stroke="#000000" cx="362.1367" cy="-612.1" rx="3.5" ry="3.5"/>
<text text-anchor="middle" x="347.6367" y="-619.4" font-family="Times,serif" font-size="14.00" fill="#000000">join</text>
</g>
<!-- v4&#45;&gt;v8 -->
<g id="edge5" class="edge">
<title>v4&#45;&gt;v8</title>
<path fill="none" stroke="#000000" d="M210.2209,-667.0913C231.6511,-656.5134 260.0825,-643.2559 286.1367,-633.6 307.6451,-625.6288 333.4955,-618.8948 348.8296,-615.1848"/>
<polygon fill="#000000" stroke="#000000" points="349.6545,-618.5864 358.5888,-612.8918 348.0533,-611.7719 349.6545,-618.5864"/>
<text text-anchor="middle" x="322.1367" y="-637.4" font-family="Times,serif" font-size="14.00" fill="#000000">trimming_ch</text>
</g>
<!-- v13 -->
<g id="node13" class="node">
<title>v13</title>
<ellipse fill="none" stroke="#000000" cx="329.1367" cy="-481.1" rx="3.5" ry="3.5"/>
<text text-anchor="middle" x="314.6367" y="-488.4" font-family="Times,serif" font-size="14.00" fill="#000000">join</text>
</g>
<!-- v4&#45;&gt;v13 -->
<g id="edge15" class="edge">
<title>v4&#45;&gt;v13</title>
<path fill="none" stroke="#000000" d="M172.4362,-666.4833C166.829,-633.5293 160.2198,-563.3366 195.1367,-521.6 210.8301,-502.8414 284.6756,-488.5451 315.5333,-483.2897"/>
<polygon fill="#000000" stroke="#000000" points="316.2728,-486.7153 325.5752,-481.6443 315.1409,-479.8074 316.2728,-486.7153"/>
<text text-anchor="middle" x="208.1367" y="-579.4" font-family="Times,serif" font-size="14.00" fill="#000000">trimming_ch</text>
</g>
<!-- v17 -->
<g id="node18" class="node">
<title>v17</title>
<ellipse fill="none" stroke="#000000" cx="150.1367" cy="-248.1" rx="3.5" ry="3.5"/>
<text text-anchor="middle" x="135.6367" y="-255.4" font-family="Times,serif" font-size="14.00" fill="#000000">join</text>
</g>
<!-- v4&#45;&gt;v17 -->
<g id="edge20" class="edge">
<title>v4&#45;&gt;v17</title>
<path fill="none" stroke="#000000" d="M160.4612,-666.5713C149.9937,-652.6622 138.1367,-632.4217 138.1367,-612.1 138.1367,-612.1 138.1367,-612.1 138.1367,-306.6 138.1367,-290.7487 142.4169,-272.9652 145.8647,-261.2113"/>
<polygon fill="#000000" stroke="#000000" points="149.2643,-262.0688 148.9422,-251.4789 142.5901,-259.9583 149.2643,-262.0688"/>
<text text-anchor="middle" x="174.1367" y="-448.4" font-family="Times,serif" font-size="14.00" fill="#000000">trimming_ch</text>
</g>
<!-- v9 -->
<g id="node10" class="node">
<title>v9</title>
<ellipse fill="none" stroke="#000000" cx="541.1367" cy="-539.6" rx="3.5" ry="3.5"/>
<text text-anchor="middle" x="550.6367" y="-546.9" font-family="Times,serif" font-size="14.00" fill="#000000">view</text>
</g>
<!-- v8&#45;&gt;v9 -->
<g id="edge9" class="edge">
<title>v8&#45;&gt;v9</title>
<path fill="none" stroke="#000000" d="M365.7086,-611.8512C379.8017,-610.7786 432.7503,-605.8899 473.1367,-590.6 500.1542,-580.3715 508.1502,-577.4529 529.1367,-557.6 530.9988,-555.8384 532.721,-553.7368 534.2454,-551.6016"/>
<polygon fill="#000000" stroke="#000000" points="537.2814,-553.3451 539.4825,-542.9815 531.299,-549.7105 537.2814,-553.3451"/>
<text text-anchor="middle" x="559.6367" y="-579.4" font-family="Times,serif" font-size="14.00" fill="#000000">reads_with_size_ch</text>
</g>
<!-- v11 -->
<g id="node12" class="node">
<title>v11</title>
<ellipse fill="none" stroke="#000000" cx="362.1367" cy="-539.6" rx="157.872" ry="18"/>
<text text-anchor="middle" x="362.1367" y="-535.9" font-family="Times,serif" font-size="14.00" fill="#000000">assemble:assamble_process:ASSEMBLE</text>
</g>
<!-- v8&#45;&gt;v11 -->
<g id="edge11" class="edge">
<title>v8&#45;&gt;v11</title>
<path fill="none" stroke="#000000" d="M362.1367,-608.2021C362.1367,-600.6027 362.1367,-583.203 362.1367,-567.8295"/>
<polygon fill="#000000" stroke="#000000" points="365.6368,-567.6553 362.1367,-557.6553 358.6368,-567.6553 365.6368,-567.6553"/>
<text text-anchor="middle" x="415.6367" y="-579.4" font-family="Times,serif" font-size="14.00" fill="#000000">reads_with_size_ch</text>
</g>
<!-- v5 -->
<g id="node7" class="node">
<title>v5</title>
<ellipse fill="#000000" stroke="#000000" cx="362.1367" cy="-830.2" rx="3.6" ry="3.6"/>
<text text-anchor="middle" x="308.5367" y="-837.6" font-family="Times,serif" font-size="14.00" fill="#000000">Channel.fromPath</text>
</g>
<!-- v6 -->
<g id="node8" class="node">
<title>v6</title>
<ellipse fill="none" stroke="#000000" cx="362.1367" cy="-757.6" rx="3.5" ry="3.5"/>
<text text-anchor="middle" x="381.1367" y="-764.9" font-family="Times,serif" font-size="14.00" fill="#000000">splitCsv</text>
</g>
<!-- v5&#45;&gt;v6 -->
<g id="edge6" class="edge">
<title>v5&#45;&gt;v6</title>
<path fill="none" stroke="#000000" d="M362.1367,-826.2967C362.1367,-816.1576 362.1367,-788.597 362.1367,-771.6256"/>
<polygon fill="#000000" stroke="#000000" points="365.6368,-771.1754 362.1367,-761.1755 358.6368,-771.1755 365.6368,-771.1754"/>
</g>
<!-- v7 -->
<g id="node9" class="node">
<title>v7</title>
<ellipse fill="none" stroke="#000000" cx="362.1367" cy="-684.6" rx="3.5" ry="3.5"/>
<text text-anchor="middle" x="346.1367" y="-691.9" font-family="Times,serif" font-size="14.00" fill="#000000">map</text>
</g>
<!-- v6&#45;&gt;v7 -->
<g id="edge7" class="edge">
<title>v6&#45;&gt;v7</title>
<path fill="none" stroke="#000000" d="M362.1367,-754.0791C362.1367,-744.1785 362.1367,-715.6936 362.1367,-698.4241"/>
<polygon fill="#000000" stroke="#000000" points="365.6368,-698.2575 362.1367,-688.2576 358.6368,-698.2576 365.6368,-698.2575"/>
</g>
<!-- v7&#45;&gt;v8 -->
<g id="edge8" class="edge">
<title>v7&#45;&gt;v8</title>
<path fill="none" stroke="#000000" d="M362.1367,-680.7021C362.1367,-670.577 362.1367,-643.0543 362.1367,-626.1062"/>
<polygon fill="#000000" stroke="#000000" points="365.6368,-625.6705 362.1367,-615.6706 358.6368,-625.6706 365.6368,-625.6705"/>
<text text-anchor="middle" x="407.6367" y="-637.4" font-family="Times,serif" font-size="14.00" fill="#000000">genome_size_ch</text>
</g>
<!-- v10 -->
<g id="node11" class="node">
<title>v10</title>
<ellipse fill="#000000" stroke="#000000" cx="541.1367" cy="-481.1" rx="1.8" ry="1.8"/>
</g>
<!-- v9&#45;&gt;v10 -->
<g id="edge10" class="edge">
<title>v9&#45;&gt;v10</title>
<path fill="none" stroke="#000000" d="M541.1367,-535.7617C541.1367,-527.2208 541.1367,-506.349 541.1367,-493.0089"/>
<polygon fill="#000000" stroke="#000000" points="544.6368,-492.9149 541.1367,-482.9149 537.6368,-492.915 544.6368,-492.9149"/>
</g>
<!-- v11&#45;&gt;v13 -->
<g id="edge12" class="edge">
<title>v11&#45;&gt;v13</title>
<path fill="none" stroke="#000000" d="M351.8762,-521.4109C346.7192,-512.269 340.6086,-501.4365 336.0211,-493.3042"/>
<polygon fill="#000000" stroke="#000000" points="339.038,-491.5285 331.0763,-484.5383 332.9411,-494.9678 339.038,-491.5285"/>
</g>
<!-- v12 -->
<g id="node14" class="node">
<title>v12</title>
<ellipse fill="none" stroke="#000000" cx="362.1367" cy="-481.1" rx="3.5" ry="3.5"/>
<text text-anchor="middle" x="346.1367" y="-488.4" font-family="Times,serif" font-size="14.00" fill="#000000">map</text>
</g>
<!-- v11&#45;&gt;v12 -->
<g id="edge13" class="edge">
<title>v11&#45;&gt;v12</title>
<path fill="none" stroke="#000000" d="M362.1367,-521.4109C362.1367,-512.9587 362.1367,-503.0613 362.1367,-495.189"/>
<polygon fill="#000000" stroke="#000000" points="365.6368,-494.9836 362.1367,-484.9837 358.6368,-494.9837 365.6368,-494.9836"/>
</g>
<!-- v14 -->
<g id="node15" class="node">
<title>v14</title>
<ellipse fill="none" stroke="#000000" cx="359.1367" cy="-423.1" rx="3.5" ry="3.5"/>
<text text-anchor="middle" x="344.6367" y="-430.4" font-family="Times,serif" font-size="14.00" fill="#000000">join</text>
</g>
<!-- v13&#45;&gt;v14 -->
<g id="edge16" class="edge">
<title>v13&#45;&gt;v14</title>
<path fill="none" stroke="#000000" d="M330.7496,-477.9817C334.8191,-470.1139 345.6806,-449.1152 352.7269,-435.4921"/>
<polygon fill="#000000" stroke="#000000" points="356.0303,-436.7239 357.5158,-426.2337 349.8127,-433.5079 356.0303,-436.7239"/>
</g>
<!-- v12&#45;&gt;v14 -->
<g id="edge14" class="edge">
<title>v12&#45;&gt;v14</title>
<path fill="none" stroke="#000000" d="M361.9398,-477.2945C361.5249,-469.2731 360.5426,-450.2817 359.8587,-437.0589"/>
<polygon fill="#000000" stroke="#000000" points="363.3346,-436.5011 359.3226,-426.6953 356.344,-436.8628 363.3346,-436.5011"/>
<text text-anchor="middle" x="393.6367" y="-448.4" font-family="Times,serif" font-size="14.00" fill="#000000">coverage_ch</text>
</g>
<!-- v15 -->
<g id="node16" class="node">
<title>v15</title>
<ellipse fill="none" stroke="#000000" cx="359.1367" cy="-379.1" rx="3.5" ry="3.5"/>
<text text-anchor="middle" x="343.1367" y="-386.4" font-family="Times,serif" font-size="14.00" fill="#000000">map</text>
</g>
<!-- v14&#45;&gt;v15 -->
<g id="edge17" class="edge">
<title>v14&#45;&gt;v15</title>
<path fill="none" stroke="#000000" d="M359.1367,-419.3486C359.1367,-413.5686 359.1367,-402.1915 359.1367,-393.0038"/>
<polygon fill="#000000" stroke="#000000" points="362.6368,-392.8419 359.1367,-382.8419 355.6368,-392.842 362.6368,-392.8419"/>
</g>
<!-- v16 -->
<g id="node17" class="node">
<title>v16</title>
<ellipse fill="none" stroke="#000000" cx="359.1367" cy="-306.6" rx="193.0657" ry="18"/>
<text text-anchor="middle" x="359.1367" y="-302.9" font-family="Times,serif" font-size="14.00" fill="#000000">assemble:assamble_process:POLISHING_ROUND</text>
</g>
<!-- v15&#45;&gt;v16 -->
<g id="edge18" class="edge">
<title>v15&#45;&gt;v16</title>
<path fill="none" stroke="#000000" d="M359.1367,-375.2021C359.1367,-367.6027 359.1367,-350.203 359.1367,-334.8295"/>
<polygon fill="#000000" stroke="#000000" points="362.6368,-334.6553 359.1367,-324.6553 355.6368,-334.6553 362.6368,-334.6553"/>
<text text-anchor="middle" x="392.1367" y="-346.4" font-family="Times,serif" font-size="14.00" fill="#000000">polished_ch</text>
</g>
<!-- v16&#45;&gt;v17 -->
<g id="edge19" class="edge">
<title>v16&#45;&gt;v17</title>
<path fill="none" stroke="#000000" d="M298.1234,-289.5221C251.1091,-276.3626 189.8018,-259.2024 163.2942,-251.7828"/>
<polygon fill="#000000" stroke="#000000" points="164.0869,-248.3703 153.5135,-249.0452 162.2,-255.1112 164.0869,-248.3703"/>
</g>
<!-- v18 -->
<g id="node19" class="node">
<title>v18</title>
<ellipse fill="none" stroke="#000000" cx="150.1367" cy="-204.1" rx="3.5" ry="3.5"/>
<text text-anchor="middle" x="134.1367" y="-211.4" font-family="Times,serif" font-size="14.00" fill="#000000">map</text>
</g>
<!-- v17&#45;&gt;v18 -->
<g id="edge21" class="edge">
<title>v17&#45;&gt;v18</title>
<path fill="none" stroke="#000000" d="M150.1367,-244.3486C150.1367,-238.5686 150.1367,-227.1915 150.1367,-218.0038"/>
<polygon fill="#000000" stroke="#000000" points="153.6368,-217.8419 150.1367,-207.8419 146.6368,-217.842 153.6368,-217.8419"/>
</g>
<!-- v19 -->
<g id="node20" class="node">
<title>v19</title>
<ellipse fill="none" stroke="#000000" cx="150.1367" cy="-131.6" rx="150.2735" ry="18"/>
<text text-anchor="middle" x="150.1367" y="-127.9" font-family="Times,serif" font-size="14.00" fill="#000000">assemble:assamble_process:MEDAKA</text>
</g>
<!-- v18&#45;&gt;v19 -->
<g id="edge22" class="edge">
<title>v18&#45;&gt;v19</title>
<path fill="none" stroke="#000000" d="M150.1367,-200.2021C150.1367,-192.6027 150.1367,-175.203 150.1367,-159.8295"/>
<polygon fill="#000000" stroke="#000000" points="153.6368,-159.6553 150.1367,-149.6553 146.6368,-159.6553 153.6368,-159.6553"/>
<text text-anchor="middle" x="181.6367" y="-171.4" font-family="Times,serif" font-size="14.00" fill="#000000">medaka_ch</text>
</g>
<!-- v20 -->
<g id="node21" class="node">
<title>v20</title>
<ellipse fill="#000000" stroke="#000000" cx="138.1367" cy="-58.6" rx="1.8" ry="1.8"/>
</g>
<!-- v19&#45;&gt;v20 -->
<g id="edge23" class="edge">
<title>v19&#45;&gt;v20</title>
<path fill="none" stroke="#000000" d="M147.1704,-113.5551C144.9516,-100.0574 141.9817,-81.9904 140.0637,-70.3224"/>
<polygon fill="#000000" stroke="#000000" points="143.517,-69.7523 138.4412,-60.4525 136.6097,-70.8878 143.517,-69.7523"/>
</g>
<!-- v21 -->
<g id="node22" class="node">
<title>v21</title>
<ellipse fill="none" stroke="#000000" cx="290.1367" cy="-58.6" rx="131.8766" ry="18"/>
<text text-anchor="middle" x="290.1367" y="-54.9" font-family="Times,serif" font-size="14.00" fill="#000000">assemble:assamble_process:AMR</text>
</g>
<!-- v19&#45;&gt;v21 -->
<g id="edge24" class="edge">
<title>v19&#45;&gt;v21</title>
<path fill="none" stroke="#000000" d="M184.0268,-113.9287C203.1149,-103.9757 227.136,-91.4503 247.4938,-80.8352"/>
<polygon fill="#000000" stroke="#000000" points="249.3099,-83.8355 256.5587,-76.1085 246.0734,-77.6286 249.3099,-83.8355"/>
</g>
<!-- v22 -->
<g id="node23" class="node">
<title>v22</title>
<ellipse fill="#000000" stroke="#000000" cx="290.1367" cy="-1.8" rx="1.8" ry="1.8"/>
</g>
<!-- v21&#45;&gt;v22 -->
<g id="edge25" class="edge">
<title>v21&#45;&gt;v22</title>
<path fill="none" stroke="#000000" d="M290.1367,-40.3155C290.1367,-31.6139 290.1367,-21.4551 290.1367,-13.756"/>
<polygon fill="#000000" stroke="#000000" points="293.6368,-13.6036 290.1367,-3.6036 286.6368,-13.6037 293.6368,-13.6036"/>
</g>
</g>
</svg>
